G04 #@! TF.GenerationSoftware,KiCad,Pcbnew,(5.1.5)-3*
G04 #@! TF.CreationDate,2020-07-07T23:04:53+02:00*
G04 #@! TF.ProjectId,example,6578616d-706c-4652-9e6b-696361645f70,rev?*
G04 #@! TF.SameCoordinates,Original*
G04 #@! TF.FileFunction,Soldermask,Top*
G04 #@! TF.FilePolarity,Negative*
%FSLAX46Y46*%
G04 Gerber Fmt 4.6, Leading zero omitted, Abs format (unit mm)*
G04 Created by KiCad (PCBNEW (5.1.5)-3) date 2020-07-07 23:04:53*
%MOMM*%
%LPD*%
G04 APERTURE LIST*
%ADD10C,0.100000*%
G04 APERTURE END LIST*
D10*
G36*
X200379487Y-84748996D02*
G01*
X200616253Y-84847068D01*
X200616255Y-84847069D01*
X200829339Y-84989447D01*
X201010553Y-85170661D01*
X201152932Y-85383747D01*
X201251004Y-85620513D01*
X201301000Y-85871861D01*
X201301000Y-86128139D01*
X201251004Y-86379487D01*
X201152932Y-86616253D01*
X201152931Y-86616255D01*
X201010553Y-86829339D01*
X200829339Y-87010553D01*
X200616255Y-87152931D01*
X200616254Y-87152932D01*
X200616253Y-87152932D01*
X200379487Y-87251004D01*
X200128139Y-87301000D01*
X199871861Y-87301000D01*
X199620513Y-87251004D01*
X199383747Y-87152932D01*
X199383746Y-87152932D01*
X199383745Y-87152931D01*
X199170661Y-87010553D01*
X198989447Y-86829339D01*
X198847069Y-86616255D01*
X198847068Y-86616253D01*
X198748996Y-86379487D01*
X198699000Y-86128139D01*
X198699000Y-85871861D01*
X198748996Y-85620513D01*
X198847068Y-85383747D01*
X198989447Y-85170661D01*
X199170661Y-84989447D01*
X199383745Y-84847069D01*
X199383747Y-84847068D01*
X199620513Y-84748996D01*
X199871861Y-84699000D01*
X200128139Y-84699000D01*
X200379487Y-84748996D01*
G37*
G36*
X143379487Y-84748996D02*
G01*
X143616253Y-84847068D01*
X143616255Y-84847069D01*
X143829339Y-84989447D01*
X144010553Y-85170661D01*
X144152932Y-85383747D01*
X144251004Y-85620513D01*
X144301000Y-85871861D01*
X144301000Y-86128139D01*
X144251004Y-86379487D01*
X144152932Y-86616253D01*
X144152931Y-86616255D01*
X144010553Y-86829339D01*
X143829339Y-87010553D01*
X143616255Y-87152931D01*
X143616254Y-87152932D01*
X143616253Y-87152932D01*
X143379487Y-87251004D01*
X143128139Y-87301000D01*
X142871861Y-87301000D01*
X142620513Y-87251004D01*
X142383747Y-87152932D01*
X142383746Y-87152932D01*
X142383745Y-87152931D01*
X142170661Y-87010553D01*
X141989447Y-86829339D01*
X141847069Y-86616255D01*
X141847068Y-86616253D01*
X141748996Y-86379487D01*
X141699000Y-86128139D01*
X141699000Y-85871861D01*
X141748996Y-85620513D01*
X141847068Y-85383747D01*
X141989447Y-85170661D01*
X142170661Y-84989447D01*
X142383745Y-84847069D01*
X142383747Y-84847068D01*
X142620513Y-84748996D01*
X142871861Y-84699000D01*
X143128139Y-84699000D01*
X143379487Y-84748996D01*
G37*
G36*
X154166978Y-82525453D02*
G01*
X154321850Y-82589603D01*
X154461231Y-82682735D01*
X154579765Y-82801269D01*
X154672897Y-82940650D01*
X154737047Y-83095522D01*
X154769750Y-83259934D01*
X154769750Y-83427566D01*
X154737047Y-83591978D01*
X154672897Y-83746850D01*
X154579765Y-83886231D01*
X154461231Y-84004765D01*
X154321850Y-84097897D01*
X154166978Y-84162047D01*
X154002566Y-84194750D01*
X153834934Y-84194750D01*
X153670522Y-84162047D01*
X153515650Y-84097897D01*
X153376269Y-84004765D01*
X153257735Y-83886231D01*
X153164603Y-83746850D01*
X153100453Y-83591978D01*
X153067750Y-83427566D01*
X153067750Y-83259934D01*
X153100453Y-83095522D01*
X153164603Y-82940650D01*
X153257735Y-82801269D01*
X153376269Y-82682735D01*
X153515650Y-82589603D01*
X153670522Y-82525453D01*
X153834934Y-82492750D01*
X154002566Y-82492750D01*
X154166978Y-82525453D01*
G37*
G36*
X146969750Y-84194750D02*
G01*
X145267750Y-84194750D01*
X145267750Y-82492750D01*
X146969750Y-82492750D01*
X146969750Y-84194750D01*
G37*
G36*
X173082711Y-82295207D02*
G01*
X173237583Y-82359357D01*
X173376964Y-82452489D01*
X173495498Y-82571023D01*
X173588630Y-82710404D01*
X173652780Y-82865276D01*
X173685483Y-83029688D01*
X173685483Y-83197320D01*
X173652780Y-83361732D01*
X173588630Y-83516604D01*
X173495498Y-83655985D01*
X173376964Y-83774519D01*
X173237583Y-83867651D01*
X173082711Y-83931801D01*
X172918299Y-83964504D01*
X172750667Y-83964504D01*
X172586255Y-83931801D01*
X172431383Y-83867651D01*
X172292002Y-83774519D01*
X172173468Y-83655985D01*
X172080336Y-83516604D01*
X172016186Y-83361732D01*
X171983483Y-83197320D01*
X171983483Y-83029688D01*
X172016186Y-82865276D01*
X172080336Y-82710404D01*
X172173468Y-82571023D01*
X172292002Y-82452489D01*
X172431383Y-82359357D01*
X172586255Y-82295207D01*
X172750667Y-82262504D01*
X172918299Y-82262504D01*
X173082711Y-82295207D01*
G37*
G36*
X165885483Y-83964504D02*
G01*
X164183483Y-83964504D01*
X164183483Y-82262504D01*
X165885483Y-82262504D01*
X165885483Y-83964504D01*
G37*
G36*
X166560044Y-72818486D02*
G01*
X166645221Y-72825003D01*
X166685003Y-72836129D01*
X166892025Y-72894027D01*
X167120620Y-73009875D01*
X167322222Y-73168093D01*
X167489084Y-73362603D01*
X167614793Y-73585928D01*
X167693108Y-73825181D01*
X167694518Y-73829489D01*
X167721810Y-74055849D01*
X167725194Y-74083917D01*
X167705645Y-74339445D01*
X167682491Y-74422233D01*
X167636620Y-74586250D01*
X167598309Y-74661846D01*
X167549800Y-74757566D01*
X166272204Y-76762988D01*
X166272202Y-76762990D01*
X166153630Y-76914076D01*
X165959123Y-77080936D01*
X165822505Y-77157837D01*
X165735795Y-77206646D01*
X165498584Y-77284292D01*
X165492234Y-77286371D01*
X165237807Y-77317047D01*
X165237806Y-77317047D01*
X164982279Y-77297498D01*
X164735475Y-77228473D01*
X164735474Y-77228473D01*
X164735472Y-77228472D01*
X164506885Y-77112628D01*
X164506883Y-77112627D01*
X164506880Y-77112625D01*
X164305278Y-76954407D01*
X164305274Y-76954404D01*
X164138417Y-76759900D01*
X164012708Y-76536573D01*
X164012707Y-76536572D01*
X163932983Y-76293014D01*
X163932982Y-76293011D01*
X163902306Y-76038584D01*
X163902306Y-76038583D01*
X163921855Y-75783056D01*
X163990880Y-75536252D01*
X163990880Y-75536251D01*
X164071520Y-75377130D01*
X164077700Y-75364935D01*
X165355295Y-73359512D01*
X165473869Y-73208425D01*
X165617802Y-73084951D01*
X165668380Y-73041562D01*
X165891698Y-72915856D01*
X165891704Y-72915854D01*
X166135261Y-72836130D01*
X166135262Y-72836130D01*
X166135265Y-72836129D01*
X166389691Y-72805453D01*
X166389693Y-72805453D01*
X166560044Y-72818486D01*
G37*
G36*
X147510044Y-72818486D02*
G01*
X147595221Y-72825003D01*
X147635003Y-72836129D01*
X147842025Y-72894027D01*
X148070620Y-73009875D01*
X148272222Y-73168093D01*
X148439084Y-73362603D01*
X148564793Y-73585928D01*
X148643108Y-73825181D01*
X148644518Y-73829489D01*
X148671810Y-74055849D01*
X148675194Y-74083917D01*
X148655645Y-74339445D01*
X148632491Y-74422233D01*
X148586620Y-74586250D01*
X148548309Y-74661846D01*
X148499800Y-74757566D01*
X147222204Y-76762988D01*
X147222202Y-76762990D01*
X147103630Y-76914076D01*
X146909123Y-77080936D01*
X146772505Y-77157837D01*
X146685795Y-77206646D01*
X146448584Y-77284292D01*
X146442234Y-77286371D01*
X146187807Y-77317047D01*
X146187806Y-77317047D01*
X145932279Y-77297498D01*
X145685475Y-77228473D01*
X145685474Y-77228473D01*
X145685472Y-77228472D01*
X145456885Y-77112628D01*
X145456883Y-77112627D01*
X145456880Y-77112625D01*
X145255278Y-76954407D01*
X145255274Y-76954404D01*
X145088417Y-76759900D01*
X144962708Y-76536573D01*
X144962707Y-76536572D01*
X144882983Y-76293014D01*
X144882982Y-76293011D01*
X144852306Y-76038584D01*
X144852306Y-76038583D01*
X144871855Y-75783056D01*
X144940880Y-75536252D01*
X144940880Y-75536251D01*
X145021520Y-75377130D01*
X145027700Y-75364935D01*
X146305295Y-73359512D01*
X146423869Y-73208425D01*
X146567802Y-73084951D01*
X146618380Y-73041562D01*
X146841698Y-72915856D01*
X146841704Y-72915854D01*
X147085261Y-72836130D01*
X147085262Y-72836130D01*
X147085265Y-72836129D01*
X147339691Y-72805453D01*
X147339693Y-72805453D01*
X147510044Y-72818486D01*
G37*
G36*
X171950129Y-72240063D02*
G01*
X172189741Y-72330963D01*
X172407015Y-72466863D01*
X172593602Y-72642538D01*
X172704959Y-72798800D01*
X172742330Y-72851240D01*
X172847485Y-73084947D01*
X172847486Y-73084951D01*
X172905026Y-73334678D01*
X172910808Y-73526644D01*
X172910807Y-73526652D01*
X172862666Y-74232821D01*
X172830885Y-74422233D01*
X172739985Y-74661845D01*
X172604085Y-74879119D01*
X172428410Y-75065706D01*
X172272148Y-75177063D01*
X172219708Y-75214434D01*
X171986001Y-75319589D01*
X171985997Y-75319590D01*
X171736271Y-75377130D01*
X171480116Y-75384844D01*
X171480112Y-75384844D01*
X171227371Y-75342437D01*
X170987759Y-75251537D01*
X170770485Y-75115637D01*
X170717453Y-75065706D01*
X170583898Y-74939962D01*
X170453916Y-74757565D01*
X170435170Y-74731260D01*
X170330015Y-74497553D01*
X170272474Y-74247821D01*
X170272022Y-74232821D01*
X170266692Y-74055858D01*
X170314834Y-73349678D01*
X170338535Y-73208425D01*
X170346615Y-73160267D01*
X170437515Y-72920655D01*
X170573415Y-72703381D01*
X170630700Y-72642538D01*
X170749090Y-72516794D01*
X170905352Y-72405437D01*
X170957792Y-72368066D01*
X171191499Y-72262911D01*
X171191503Y-72262910D01*
X171441229Y-72205370D01*
X171697384Y-72197656D01*
X171697388Y-72197656D01*
X171950129Y-72240063D01*
G37*
G36*
X152900129Y-72240063D02*
G01*
X153139741Y-72330963D01*
X153357015Y-72466863D01*
X153543602Y-72642538D01*
X153654959Y-72798800D01*
X153692330Y-72851240D01*
X153797485Y-73084947D01*
X153797486Y-73084951D01*
X153855026Y-73334678D01*
X153860808Y-73526644D01*
X153860807Y-73526652D01*
X153812666Y-74232821D01*
X153780885Y-74422233D01*
X153689985Y-74661845D01*
X153554085Y-74879119D01*
X153378410Y-75065706D01*
X153222148Y-75177063D01*
X153169708Y-75214434D01*
X152936001Y-75319589D01*
X152935997Y-75319590D01*
X152686271Y-75377130D01*
X152430116Y-75384844D01*
X152430112Y-75384844D01*
X152177371Y-75342437D01*
X151937759Y-75251537D01*
X151720485Y-75115637D01*
X151667453Y-75065706D01*
X151533898Y-74939962D01*
X151403916Y-74757565D01*
X151385170Y-74731260D01*
X151280015Y-74497553D01*
X151222474Y-74247821D01*
X151222022Y-74232821D01*
X151216692Y-74055858D01*
X151264834Y-73349678D01*
X151288535Y-73208425D01*
X151296615Y-73160267D01*
X151387515Y-72920655D01*
X151523415Y-72703381D01*
X151580700Y-72642538D01*
X151699090Y-72516794D01*
X151855352Y-72405437D01*
X151907792Y-72368066D01*
X152141499Y-72262911D01*
X152141503Y-72262910D01*
X152391229Y-72205370D01*
X152647384Y-72197656D01*
X152647388Y-72197656D01*
X152900129Y-72240063D01*
G37*
G36*
X165809501Y-65185521D02*
G01*
X164107501Y-65185521D01*
X164107501Y-63483521D01*
X165809501Y-63483521D01*
X165809501Y-65185521D01*
G37*
G36*
X173006729Y-63516224D02*
G01*
X173161601Y-63580374D01*
X173300982Y-63673506D01*
X173419516Y-63792040D01*
X173512648Y-63931421D01*
X173576798Y-64086293D01*
X173609501Y-64250705D01*
X173609501Y-64418337D01*
X173576798Y-64582749D01*
X173512648Y-64737621D01*
X173419516Y-64877002D01*
X173300982Y-64995536D01*
X173161601Y-65088668D01*
X173006729Y-65152818D01*
X172842317Y-65185521D01*
X172674685Y-65185521D01*
X172510273Y-65152818D01*
X172355401Y-65088668D01*
X172216020Y-64995536D01*
X172097486Y-64877002D01*
X172004354Y-64737621D01*
X171940204Y-64582749D01*
X171907501Y-64418337D01*
X171907501Y-64250705D01*
X171940204Y-64086293D01*
X172004354Y-63931421D01*
X172097486Y-63792040D01*
X172216020Y-63673506D01*
X172355401Y-63580374D01*
X172510273Y-63516224D01*
X172674685Y-63483521D01*
X172842317Y-63483521D01*
X173006729Y-63516224D01*
G37*
G36*
X146651000Y-65144750D02*
G01*
X144949000Y-65144750D01*
X144949000Y-63442750D01*
X146651000Y-63442750D01*
X146651000Y-65144750D01*
G37*
G36*
X153848228Y-63475453D02*
G01*
X154003100Y-63539603D01*
X154142481Y-63632735D01*
X154261015Y-63751269D01*
X154354147Y-63890650D01*
X154418297Y-64045522D01*
X154451000Y-64209934D01*
X154451000Y-64377566D01*
X154418297Y-64541978D01*
X154354147Y-64696850D01*
X154261015Y-64836231D01*
X154142481Y-64954765D01*
X154003100Y-65047897D01*
X153848228Y-65112047D01*
X153683816Y-65144750D01*
X153516184Y-65144750D01*
X153351772Y-65112047D01*
X153196900Y-65047897D01*
X153057519Y-64954765D01*
X152938985Y-64836231D01*
X152845853Y-64696850D01*
X152781703Y-64541978D01*
X152749000Y-64377566D01*
X152749000Y-64209934D01*
X152781703Y-64045522D01*
X152845853Y-63890650D01*
X152938985Y-63751269D01*
X153057519Y-63632735D01*
X153196900Y-63539603D01*
X153351772Y-63475453D01*
X153516184Y-63442750D01*
X153683816Y-63442750D01*
X153848228Y-63475453D01*
G37*
G36*
X147510044Y-53768486D02*
G01*
X147595221Y-53775003D01*
X147631463Y-53785139D01*
X147842025Y-53844027D01*
X148070620Y-53959875D01*
X148272222Y-54118093D01*
X148439084Y-54312603D01*
X148564793Y-54535928D01*
X148639632Y-54764561D01*
X148644518Y-54779489D01*
X148665001Y-54949379D01*
X148675194Y-55033917D01*
X148655645Y-55289445D01*
X148632491Y-55372233D01*
X148586620Y-55536250D01*
X148548309Y-55611846D01*
X148499800Y-55707566D01*
X147222204Y-57712988D01*
X147222202Y-57712990D01*
X147103630Y-57864076D01*
X146909123Y-58030936D01*
X146772505Y-58107837D01*
X146685795Y-58156646D01*
X146448584Y-58234292D01*
X146442234Y-58236371D01*
X146187807Y-58267047D01*
X146187806Y-58267047D01*
X145932279Y-58247498D01*
X145685475Y-58178473D01*
X145685474Y-58178473D01*
X145685472Y-58178472D01*
X145456885Y-58062628D01*
X145456883Y-58062627D01*
X145456880Y-58062625D01*
X145255278Y-57904407D01*
X145255274Y-57904404D01*
X145088417Y-57709900D01*
X144962708Y-57486573D01*
X144962707Y-57486572D01*
X144882983Y-57243014D01*
X144882982Y-57243011D01*
X144852306Y-56988584D01*
X144852306Y-56988583D01*
X144871855Y-56733056D01*
X144940880Y-56486252D01*
X144940880Y-56486251D01*
X145021520Y-56327130D01*
X145027700Y-56314935D01*
X146305295Y-54309512D01*
X146423869Y-54158425D01*
X146567802Y-54034951D01*
X146618380Y-53991562D01*
X146841698Y-53865856D01*
X146841704Y-53865854D01*
X147085261Y-53786130D01*
X147085262Y-53786130D01*
X147085265Y-53786129D01*
X147339691Y-53755453D01*
X147339693Y-53755453D01*
X147510044Y-53768486D01*
G37*
G36*
X166560044Y-53768486D02*
G01*
X166645221Y-53775003D01*
X166681463Y-53785139D01*
X166892025Y-53844027D01*
X167120620Y-53959875D01*
X167322222Y-54118093D01*
X167489084Y-54312603D01*
X167614793Y-54535928D01*
X167689632Y-54764561D01*
X167694518Y-54779489D01*
X167715001Y-54949379D01*
X167725194Y-55033917D01*
X167705645Y-55289445D01*
X167682491Y-55372233D01*
X167636620Y-55536250D01*
X167598309Y-55611846D01*
X167549800Y-55707566D01*
X166272204Y-57712988D01*
X166272202Y-57712990D01*
X166153630Y-57864076D01*
X165959123Y-58030936D01*
X165822505Y-58107837D01*
X165735795Y-58156646D01*
X165498584Y-58234292D01*
X165492234Y-58236371D01*
X165237807Y-58267047D01*
X165237806Y-58267047D01*
X164982279Y-58247498D01*
X164735475Y-58178473D01*
X164735474Y-58178473D01*
X164735472Y-58178472D01*
X164506885Y-58062628D01*
X164506883Y-58062627D01*
X164506880Y-58062625D01*
X164305278Y-57904407D01*
X164305274Y-57904404D01*
X164138417Y-57709900D01*
X164012708Y-57486573D01*
X164012707Y-57486572D01*
X163932983Y-57243014D01*
X163932982Y-57243011D01*
X163902306Y-56988584D01*
X163902306Y-56988583D01*
X163921855Y-56733056D01*
X163990880Y-56486252D01*
X163990880Y-56486251D01*
X164071520Y-56327130D01*
X164077700Y-56314935D01*
X165355295Y-54309512D01*
X165473869Y-54158425D01*
X165617802Y-54034951D01*
X165668380Y-53991562D01*
X165891698Y-53865856D01*
X165891704Y-53865854D01*
X166135261Y-53786130D01*
X166135262Y-53786130D01*
X166135265Y-53786129D01*
X166389691Y-53755453D01*
X166389693Y-53755453D01*
X166560044Y-53768486D01*
G37*
G36*
X152900129Y-53190063D02*
G01*
X153139741Y-53280963D01*
X153294127Y-53377528D01*
X153357015Y-53416863D01*
X153543602Y-53592538D01*
X153646014Y-53736248D01*
X153692330Y-53801240D01*
X153797485Y-54034947D01*
X153797486Y-54034951D01*
X153855026Y-54284678D01*
X153860808Y-54476644D01*
X153860807Y-54476652D01*
X153812666Y-55182821D01*
X153780885Y-55372233D01*
X153689985Y-55611845D01*
X153554085Y-55829119D01*
X153378410Y-56015706D01*
X153222148Y-56127063D01*
X153169708Y-56164434D01*
X152936001Y-56269589D01*
X152935997Y-56269590D01*
X152686271Y-56327130D01*
X152430116Y-56334844D01*
X152430112Y-56334844D01*
X152177371Y-56292437D01*
X151937759Y-56201537D01*
X151720485Y-56065637D01*
X151667453Y-56015706D01*
X151533898Y-55889962D01*
X151403916Y-55707565D01*
X151385170Y-55681260D01*
X151280015Y-55447553D01*
X151234271Y-55249021D01*
X151222474Y-55197822D01*
X151216692Y-55005858D01*
X151264834Y-54299678D01*
X151288535Y-54158425D01*
X151296615Y-54110267D01*
X151387515Y-53870655D01*
X151523415Y-53653381D01*
X151580700Y-53592538D01*
X151699090Y-53466794D01*
X151868596Y-53345999D01*
X151907792Y-53318066D01*
X152141499Y-53212911D01*
X152191249Y-53201448D01*
X152391229Y-53155370D01*
X152647384Y-53147656D01*
X152647388Y-53147656D01*
X152900129Y-53190063D01*
G37*
G36*
X171950129Y-53190063D02*
G01*
X172189741Y-53280963D01*
X172344127Y-53377528D01*
X172407015Y-53416863D01*
X172593602Y-53592538D01*
X172696014Y-53736248D01*
X172742330Y-53801240D01*
X172847485Y-54034947D01*
X172847486Y-54034951D01*
X172905026Y-54284678D01*
X172910808Y-54476644D01*
X172910807Y-54476652D01*
X172862666Y-55182821D01*
X172830885Y-55372233D01*
X172739985Y-55611845D01*
X172604085Y-55829119D01*
X172428410Y-56015706D01*
X172272148Y-56127063D01*
X172219708Y-56164434D01*
X171986001Y-56269589D01*
X171985997Y-56269590D01*
X171736271Y-56327130D01*
X171480116Y-56334844D01*
X171480112Y-56334844D01*
X171227371Y-56292437D01*
X170987759Y-56201537D01*
X170770485Y-56065637D01*
X170717453Y-56015706D01*
X170583898Y-55889962D01*
X170453916Y-55707565D01*
X170435170Y-55681260D01*
X170330015Y-55447553D01*
X170284271Y-55249021D01*
X170272474Y-55197822D01*
X170266692Y-55005858D01*
X170314834Y-54299678D01*
X170338535Y-54158425D01*
X170346615Y-54110267D01*
X170437515Y-53870655D01*
X170573415Y-53653381D01*
X170630700Y-53592538D01*
X170749090Y-53466794D01*
X170918596Y-53345999D01*
X170957792Y-53318066D01*
X171191499Y-53212911D01*
X171241249Y-53201448D01*
X171441229Y-53155370D01*
X171697384Y-53147656D01*
X171697388Y-53147656D01*
X171950129Y-53190063D01*
G37*
G36*
X163928014Y-53194473D02*
G01*
X164031878Y-53225979D01*
X164057847Y-53239860D01*
X164127599Y-53277143D01*
X164127601Y-53277144D01*
X164127600Y-53277144D01*
X164211501Y-53345999D01*
X164280356Y-53429900D01*
X164331521Y-53525621D01*
X164363027Y-53629485D01*
X164371000Y-53710433D01*
X164371000Y-54764567D01*
X164363027Y-54845515D01*
X164331521Y-54949379D01*
X164331519Y-54949382D01*
X164280357Y-55045100D01*
X164211501Y-55129001D01*
X164127600Y-55197857D01*
X164059055Y-55234495D01*
X164031879Y-55249021D01*
X163928015Y-55280527D01*
X163820000Y-55291166D01*
X163711986Y-55280527D01*
X163608122Y-55249021D01*
X163580946Y-55234495D01*
X163512401Y-55197857D01*
X163428500Y-55129001D01*
X163359644Y-55045100D01*
X163308482Y-54949382D01*
X163308480Y-54949379D01*
X163276974Y-54845515D01*
X163269001Y-54764567D01*
X163269000Y-53710434D01*
X163276973Y-53629486D01*
X163308479Y-53525622D01*
X163339923Y-53466795D01*
X163359643Y-53429901D01*
X163402622Y-53377531D01*
X163428499Y-53345999D01*
X163512400Y-53277144D01*
X163512399Y-53277144D01*
X163512401Y-53277143D01*
X163582152Y-53239860D01*
X163608121Y-53225979D01*
X163711985Y-53194473D01*
X163820000Y-53183834D01*
X163928014Y-53194473D01*
G37*
G36*
X155288014Y-53194473D02*
G01*
X155391878Y-53225979D01*
X155417847Y-53239860D01*
X155487599Y-53277143D01*
X155487601Y-53277144D01*
X155487600Y-53277144D01*
X155571501Y-53345999D01*
X155640356Y-53429900D01*
X155691521Y-53525621D01*
X155723027Y-53629485D01*
X155731000Y-53710433D01*
X155731000Y-54764567D01*
X155723027Y-54845515D01*
X155691521Y-54949379D01*
X155691519Y-54949382D01*
X155640357Y-55045100D01*
X155571501Y-55129001D01*
X155487600Y-55197857D01*
X155419055Y-55234495D01*
X155391879Y-55249021D01*
X155288015Y-55280527D01*
X155180000Y-55291166D01*
X155071986Y-55280527D01*
X154968122Y-55249021D01*
X154940946Y-55234495D01*
X154872401Y-55197857D01*
X154788500Y-55129001D01*
X154719644Y-55045100D01*
X154668482Y-54949382D01*
X154668480Y-54949379D01*
X154636974Y-54845515D01*
X154629001Y-54764567D01*
X154629000Y-53710434D01*
X154636973Y-53629486D01*
X154668479Y-53525622D01*
X154699923Y-53466795D01*
X154719643Y-53429901D01*
X154762622Y-53377531D01*
X154788499Y-53345999D01*
X154872400Y-53277144D01*
X154872399Y-53277144D01*
X154872401Y-53277143D01*
X154942152Y-53239860D01*
X154968121Y-53225979D01*
X155071985Y-53194473D01*
X155180000Y-53183834D01*
X155288014Y-53194473D01*
G37*
G36*
X156602383Y-53174989D02*
G01*
X156602386Y-53174990D01*
X156602385Y-53174990D01*
X156666258Y-53201446D01*
X156723748Y-53239860D01*
X156772640Y-53288752D01*
X156811054Y-53346242D01*
X156824014Y-53377531D01*
X156837511Y-53410117D01*
X156851000Y-53477930D01*
X156851000Y-53547070D01*
X156837511Y-53614883D01*
X156837510Y-53614885D01*
X156811054Y-53678758D01*
X156772640Y-53736248D01*
X156723748Y-53785140D01*
X156666258Y-53823554D01*
X156630533Y-53838351D01*
X156602383Y-53850011D01*
X156534570Y-53863500D01*
X156465430Y-53863500D01*
X156397617Y-53850011D01*
X156369467Y-53838351D01*
X156333742Y-53823554D01*
X156276252Y-53785140D01*
X156227360Y-53736248D01*
X156188946Y-53678758D01*
X156162490Y-53614885D01*
X156162489Y-53614883D01*
X156149000Y-53547070D01*
X156149000Y-53477930D01*
X156162489Y-53410117D01*
X156175986Y-53377531D01*
X156188946Y-53346242D01*
X156227360Y-53288752D01*
X156276252Y-53239860D01*
X156333742Y-53201446D01*
X156397615Y-53174990D01*
X156397614Y-53174990D01*
X156397617Y-53174989D01*
X156465430Y-53161500D01*
X156534570Y-53161500D01*
X156602383Y-53174989D01*
G37*
G36*
X162693809Y-53166578D02*
G01*
X162759969Y-53186649D01*
X162759972Y-53186650D01*
X162820949Y-53219242D01*
X162829160Y-53225981D01*
X162874396Y-53263104D01*
X162902707Y-53297603D01*
X162918258Y-53316551D01*
X162950850Y-53377528D01*
X162950851Y-53377531D01*
X162970922Y-53443692D01*
X162977698Y-53512500D01*
X162970922Y-53581308D01*
X162950851Y-53647469D01*
X162950850Y-53647472D01*
X162918258Y-53708449D01*
X162902707Y-53727397D01*
X162874396Y-53761896D01*
X162839897Y-53790207D01*
X162820949Y-53805758D01*
X162759972Y-53838350D01*
X162759969Y-53838351D01*
X162693809Y-53858422D01*
X162642244Y-53863500D01*
X162357756Y-53863500D01*
X162306191Y-53858422D01*
X162240031Y-53838351D01*
X162240028Y-53838350D01*
X162179051Y-53805758D01*
X162160103Y-53790207D01*
X162125604Y-53761896D01*
X162097293Y-53727397D01*
X162081742Y-53708449D01*
X162049150Y-53647472D01*
X162049149Y-53647469D01*
X162029078Y-53581308D01*
X162022302Y-53512500D01*
X162029078Y-53443692D01*
X162049149Y-53377531D01*
X162049150Y-53377528D01*
X162081742Y-53316551D01*
X162097293Y-53297603D01*
X162125604Y-53263104D01*
X162170840Y-53225981D01*
X162179051Y-53219242D01*
X162240028Y-53186650D01*
X162240031Y-53186649D01*
X162306191Y-53166578D01*
X162357756Y-53161500D01*
X162642244Y-53161500D01*
X162693809Y-53166578D01*
G37*
G36*
X143379487Y-49748996D02*
G01*
X143616253Y-49847068D01*
X143616255Y-49847069D01*
X143829339Y-49989447D01*
X144010553Y-50170661D01*
X144152932Y-50383747D01*
X144251004Y-50620513D01*
X144301000Y-50871861D01*
X144301000Y-51128139D01*
X144251004Y-51379487D01*
X144220139Y-51454001D01*
X144152931Y-51616255D01*
X144010553Y-51829339D01*
X143829339Y-52010553D01*
X143616255Y-52152931D01*
X143616254Y-52152932D01*
X143616253Y-52152932D01*
X143379487Y-52251004D01*
X143128139Y-52301000D01*
X142871861Y-52301000D01*
X142620513Y-52251004D01*
X142383747Y-52152932D01*
X142383746Y-52152932D01*
X142383745Y-52152931D01*
X142170661Y-52010553D01*
X141989447Y-51829339D01*
X141847069Y-51616255D01*
X141779861Y-51454001D01*
X141748996Y-51379487D01*
X141699000Y-51128139D01*
X141699000Y-50871861D01*
X141748996Y-50620513D01*
X141847068Y-50383747D01*
X141989447Y-50170661D01*
X142170661Y-49989447D01*
X142383745Y-49847069D01*
X142383747Y-49847068D01*
X142620513Y-49748996D01*
X142871861Y-49699000D01*
X143128139Y-49699000D01*
X143379487Y-49748996D01*
G37*
G36*
X200379487Y-49748996D02*
G01*
X200616253Y-49847068D01*
X200616255Y-49847069D01*
X200829339Y-49989447D01*
X201010553Y-50170661D01*
X201152932Y-50383747D01*
X201251004Y-50620513D01*
X201301000Y-50871861D01*
X201301000Y-51128139D01*
X201251004Y-51379487D01*
X201220139Y-51454001D01*
X201152931Y-51616255D01*
X201010553Y-51829339D01*
X200829339Y-52010553D01*
X200616255Y-52152931D01*
X200616254Y-52152932D01*
X200616253Y-52152932D01*
X200379487Y-52251004D01*
X200128139Y-52301000D01*
X199871861Y-52301000D01*
X199620513Y-52251004D01*
X199383747Y-52152932D01*
X199383746Y-52152932D01*
X199383745Y-52152931D01*
X199170661Y-52010553D01*
X198989447Y-51829339D01*
X198847069Y-51616255D01*
X198779861Y-51454001D01*
X198748996Y-51379487D01*
X198699000Y-51128139D01*
X198699000Y-50871861D01*
X198748996Y-50620513D01*
X198847068Y-50383747D01*
X198989447Y-50170661D01*
X199170661Y-49989447D01*
X199383745Y-49847069D01*
X199383747Y-49847068D01*
X199620513Y-49748996D01*
X199871861Y-49699000D01*
X200128139Y-49699000D01*
X200379487Y-49748996D01*
G37*
G36*
X155288014Y-49219473D02*
G01*
X155391878Y-49250979D01*
X155435907Y-49274513D01*
X155487599Y-49302143D01*
X155487601Y-49302144D01*
X155487600Y-49302144D01*
X155571501Y-49370999D01*
X155640356Y-49454900D01*
X155691521Y-49550621D01*
X155723027Y-49654485D01*
X155731000Y-49735433D01*
X155731000Y-51089567D01*
X155723027Y-51170515D01*
X155691521Y-51274379D01*
X155691519Y-51274382D01*
X155640357Y-51370100D01*
X155571501Y-51454001D01*
X155487600Y-51522857D01*
X155419055Y-51559495D01*
X155391879Y-51574021D01*
X155288015Y-51605527D01*
X155180000Y-51616166D01*
X155071986Y-51605527D01*
X154968122Y-51574021D01*
X154940946Y-51559495D01*
X154872401Y-51522857D01*
X154788500Y-51454001D01*
X154719644Y-51370100D01*
X154668482Y-51274382D01*
X154668480Y-51274379D01*
X154636974Y-51170515D01*
X154629001Y-51089567D01*
X154629000Y-49735434D01*
X154636973Y-49654486D01*
X154668479Y-49550622D01*
X154719644Y-49454900D01*
X154788499Y-49370999D01*
X154872400Y-49302144D01*
X154872399Y-49302144D01*
X154872401Y-49302143D01*
X154924093Y-49274513D01*
X154968121Y-49250979D01*
X155071985Y-49219473D01*
X155180000Y-49208834D01*
X155288014Y-49219473D01*
G37*
G36*
X163928014Y-49219473D02*
G01*
X164031878Y-49250979D01*
X164075907Y-49274513D01*
X164127599Y-49302143D01*
X164127601Y-49302144D01*
X164127600Y-49302144D01*
X164211501Y-49370999D01*
X164280356Y-49454900D01*
X164331521Y-49550621D01*
X164363027Y-49654485D01*
X164371000Y-49735433D01*
X164371000Y-51089567D01*
X164363027Y-51170515D01*
X164331521Y-51274379D01*
X164331519Y-51274382D01*
X164280357Y-51370100D01*
X164211501Y-51454001D01*
X164127600Y-51522857D01*
X164059055Y-51559495D01*
X164031879Y-51574021D01*
X163928015Y-51605527D01*
X163820000Y-51616166D01*
X163711986Y-51605527D01*
X163608122Y-51574021D01*
X163580946Y-51559495D01*
X163512401Y-51522857D01*
X163428500Y-51454001D01*
X163359644Y-51370100D01*
X163308482Y-51274382D01*
X163308480Y-51274379D01*
X163276974Y-51170515D01*
X163269001Y-51089567D01*
X163269000Y-49735434D01*
X163276973Y-49654486D01*
X163308479Y-49550622D01*
X163359644Y-49454900D01*
X163428499Y-49370999D01*
X163512400Y-49302144D01*
X163512399Y-49302144D01*
X163512401Y-49302143D01*
X163564093Y-49274513D01*
X163608121Y-49250979D01*
X163711985Y-49219473D01*
X163820000Y-49208834D01*
X163928014Y-49219473D01*
G37*
M02*
