G04 #@! TF.GenerationSoftware,KiCad,Pcbnew,(5.1.5)-3*
G04 #@! TF.CreationDate,2020-07-07T23:04:53+02:00*
G04 #@! TF.ProjectId,example,6578616d-706c-4652-9e6b-696361645f70,rev?*
G04 #@! TF.SameCoordinates,Original*
G04 #@! TF.FileFunction,Legend,Top*
G04 #@! TF.FilePolarity,Positive*
%FSLAX46Y46*%
G04 Gerber Fmt 4.6, Leading zero omitted, Abs format (unit mm)*
G04 Created by KiCad (PCBNEW (5.1.5)-3) date 2020-07-07 23:04:53*
%MOMM*%
%LPD*%
G04 APERTURE LIST*
%ADD10C,0.300000*%
%ADD11C,0.381000*%
G04 APERTURE END LIST*
D10*
X144750000Y-69678571D02*
X143892857Y-69678571D01*
X144321428Y-69678571D02*
X144321428Y-68178571D01*
X144178571Y-68392857D01*
X144035714Y-68535714D01*
X143892857Y-68607142D01*
X146750000Y-69678571D02*
X146607142Y-69607142D01*
X146535714Y-69535714D01*
X146464285Y-69392857D01*
X146464285Y-68964285D01*
X146535714Y-68821428D01*
X146607142Y-68750000D01*
X146750000Y-68678571D01*
X146964285Y-68678571D01*
X147107142Y-68750000D01*
X147178571Y-68821428D01*
X147250000Y-68964285D01*
X147250000Y-69392857D01*
X147178571Y-69535714D01*
X147107142Y-69607142D01*
X146964285Y-69678571D01*
X146750000Y-69678571D01*
X147678571Y-68678571D02*
X148250000Y-68678571D01*
X147892857Y-69678571D02*
X147892857Y-68392857D01*
X147964285Y-68250000D01*
X148107142Y-68178571D01*
X148250000Y-68178571D01*
X150607142Y-68178571D02*
X149892857Y-68178571D01*
X149821428Y-68892857D01*
X149892857Y-68821428D01*
X150035714Y-68750000D01*
X150392857Y-68750000D01*
X150535714Y-68821428D01*
X150607142Y-68892857D01*
X150678571Y-69035714D01*
X150678571Y-69392857D01*
X150607142Y-69535714D01*
X150535714Y-69607142D01*
X150392857Y-69678571D01*
X150035714Y-69678571D01*
X149892857Y-69607142D01*
X149821428Y-69535714D01*
X155178571Y-68178571D02*
X155178571Y-69250000D01*
X155107142Y-69464285D01*
X154964285Y-69607142D01*
X154750000Y-69678571D01*
X154607142Y-69678571D01*
X156321428Y-68178571D02*
X156321428Y-69250000D01*
X156250000Y-69464285D01*
X156107142Y-69607142D01*
X155892857Y-69678571D01*
X155750000Y-69678571D01*
X157035714Y-69678571D02*
X157035714Y-68178571D01*
X157892857Y-69678571D02*
X157250000Y-68821428D01*
X157892857Y-68178571D02*
X157035714Y-69035714D01*
X159107142Y-69607142D02*
X158964285Y-69678571D01*
X158678571Y-69678571D01*
X158535714Y-69607142D01*
X158464285Y-69464285D01*
X158464285Y-68892857D01*
X158535714Y-68750000D01*
X158678571Y-68678571D01*
X158964285Y-68678571D01*
X159107142Y-68750000D01*
X159178571Y-68892857D01*
X159178571Y-69035714D01*
X158464285Y-69178571D01*
X159678571Y-68678571D02*
X160035714Y-69678571D01*
X160392857Y-68678571D02*
X160035714Y-69678571D01*
X159892857Y-70035714D01*
X159821428Y-70107142D01*
X159678571Y-70178571D01*
X160964285Y-69678571D02*
X160964285Y-68178571D01*
X160964285Y-68750000D02*
X161107142Y-68678571D01*
X161392857Y-68678571D01*
X161535714Y-68750000D01*
X161607142Y-68821428D01*
X161678571Y-68964285D01*
X161678571Y-69392857D01*
X161607142Y-69535714D01*
X161535714Y-69607142D01*
X161392857Y-69678571D01*
X161107142Y-69678571D01*
X160964285Y-69607142D01*
X162535714Y-69678571D02*
X162392857Y-69607142D01*
X162321428Y-69535714D01*
X162250000Y-69392857D01*
X162250000Y-68964285D01*
X162321428Y-68821428D01*
X162392857Y-68750000D01*
X162535714Y-68678571D01*
X162750000Y-68678571D01*
X162892857Y-68750000D01*
X162964285Y-68821428D01*
X163035714Y-68964285D01*
X163035714Y-69392857D01*
X162964285Y-69535714D01*
X162892857Y-69607142D01*
X162750000Y-69678571D01*
X162535714Y-69678571D01*
X164321428Y-69678571D02*
X164321428Y-68892857D01*
X164250000Y-68750000D01*
X164107142Y-68678571D01*
X163821428Y-68678571D01*
X163678571Y-68750000D01*
X164321428Y-69607142D02*
X164178571Y-69678571D01*
X163821428Y-69678571D01*
X163678571Y-69607142D01*
X163607142Y-69464285D01*
X163607142Y-69321428D01*
X163678571Y-69178571D01*
X163821428Y-69107142D01*
X164178571Y-69107142D01*
X164321428Y-69035714D01*
X165035714Y-69678571D02*
X165035714Y-68678571D01*
X165035714Y-68964285D02*
X165107142Y-68821428D01*
X165178571Y-68750000D01*
X165321428Y-68678571D01*
X165464285Y-68678571D01*
X166607142Y-69678571D02*
X166607142Y-68178571D01*
X166607142Y-69607142D02*
X166464285Y-69678571D01*
X166178571Y-69678571D01*
X166035714Y-69607142D01*
X165964285Y-69535714D01*
X165892857Y-69392857D01*
X165892857Y-68964285D01*
X165964285Y-68821428D01*
X166035714Y-68750000D01*
X166178571Y-68678571D01*
X166464285Y-68678571D01*
X166607142Y-68750000D01*
X167250000Y-69607142D02*
X167392857Y-69678571D01*
X167678571Y-69678571D01*
X167821428Y-69607142D01*
X167892857Y-69464285D01*
X167892857Y-69392857D01*
X167821428Y-69250000D01*
X167678571Y-69178571D01*
X167464285Y-69178571D01*
X167321428Y-69107142D01*
X167250000Y-68964285D01*
X167250000Y-68892857D01*
X167321428Y-68750000D01*
X167464285Y-68678571D01*
X167678571Y-68678571D01*
X167821428Y-68750000D01*
X169607142Y-68321428D02*
X169678571Y-68250000D01*
X169821428Y-68178571D01*
X170178571Y-68178571D01*
X170321428Y-68250000D01*
X170392857Y-68321428D01*
X170464285Y-68464285D01*
X170464285Y-68607142D01*
X170392857Y-68821428D01*
X169535714Y-69678571D01*
X170464285Y-69678571D01*
X170964285Y-69678571D02*
X171750000Y-68678571D01*
X170964285Y-68678571D02*
X171750000Y-69678571D01*
X172250000Y-68321428D02*
X172321428Y-68250000D01*
X172464285Y-68178571D01*
X172821428Y-68178571D01*
X172964285Y-68250000D01*
X173035714Y-68321428D01*
X173107142Y-68464285D01*
X173107142Y-68607142D01*
X173035714Y-68821428D01*
X172178571Y-69678571D01*
X173107142Y-69678571D01*
D11*
X143668750Y-54959250D02*
X143668750Y-53181250D01*
X143668750Y-65881250D02*
X143668750Y-64103250D01*
X145446750Y-65881250D02*
X143668750Y-65881250D01*
X156368750Y-65881250D02*
X154590750Y-65881250D01*
X156368750Y-64103250D02*
X156368750Y-65881250D01*
X156368750Y-53181250D02*
X156368750Y-54959250D01*
X154590750Y-53181250D02*
X156368750Y-53181250D01*
X143668750Y-53181250D02*
X145446750Y-53181250D01*
X143668750Y-74009250D02*
X143668750Y-72231250D01*
X143668750Y-84931250D02*
X143668750Y-83153250D01*
X145446750Y-84931250D02*
X143668750Y-84931250D01*
X156368750Y-84931250D02*
X154590750Y-84931250D01*
X156368750Y-83153250D02*
X156368750Y-84931250D01*
X156368750Y-72231250D02*
X156368750Y-74009250D01*
X154590750Y-72231250D02*
X156368750Y-72231250D01*
X143668750Y-72231250D02*
X145446750Y-72231250D01*
X162718750Y-53181250D02*
X164496750Y-53181250D01*
X173640750Y-53181250D02*
X175418750Y-53181250D01*
X175418750Y-53181250D02*
X175418750Y-54959250D01*
X175418750Y-64103250D02*
X175418750Y-65881250D01*
X175418750Y-65881250D02*
X173640750Y-65881250D01*
X164496750Y-65881250D02*
X162718750Y-65881250D01*
X162718750Y-65881250D02*
X162718750Y-64103250D01*
X162718750Y-54959250D02*
X162718750Y-53181250D01*
X162718750Y-72231250D02*
X164496750Y-72231250D01*
X173640750Y-72231250D02*
X175418750Y-72231250D01*
X175418750Y-72231250D02*
X175418750Y-74009250D01*
X175418750Y-83153250D02*
X175418750Y-84931250D01*
X175418750Y-84931250D02*
X173640750Y-84931250D01*
X164496750Y-84931250D02*
X162718750Y-84931250D01*
X162718750Y-84931250D02*
X162718750Y-83153250D01*
X162718750Y-74009250D02*
X162718750Y-72231250D01*
M02*
