M48
; DRILL file {KiCad (5.1.5)-3} date 07/07/2020 23:05:27
; FORMAT={-:-/ absolute / inch / decimal}
; #@! TF.CreationDate,2020-07-07T23:05:27+02:00
; #@! TF.GenerationSoftware,Kicad,Pcbnew,(5.1.5)-3
; #@! TF.FileFunction,Plated,1,2,PTH
FMAT,2
INCH
T1C0.0157
T2C0.0236
T3C0.0276
T4C0.0591
%
G90
G05
T1
X6.1614Y-2.6083
X6.247Y-2.1999
X6.2521Y-2.4409
X6.286Y-2.2057
X6.2915Y-2.4409
X6.3386Y-2.6083
X6.7323Y-3.4252
X7.0079Y-2.1457
X7.0669Y-2.6969
X7.0965Y-2.1654
X7.1654Y-2.3425
X7.1654Y-2.8248
X7.2047Y-2.3425
X7.2047Y-2.7953
X7.3228Y-2.0974
X7.3425Y-2.6772
X7.3425Y-2.7461
X7.372Y-2.6181
X7.372Y-2.874
X7.372Y-3.0217
X7.372Y-3.061
X7.372Y-3.1004
X7.372Y-3.1398
X7.6476Y-3.0709
X7.8049Y-2.5391
X7.815Y-2.6772
T3
X6.4944Y-2.5329
X6.8015Y-2.5329
X5.7527Y-3.2812
X6.0598Y-3.2812
X5.7402Y-2.5312
X6.0472Y-2.5312
X6.4974Y-3.2722
X6.8045Y-3.2722
T2
G00X6.1094Y-1.9592
M15
G01X6.1094Y-2.0103
M16
G05
G00X6.1094Y-2.1156
M15
G01X6.1094Y-2.155
M16
G05
G00X6.4496Y-1.9592
M15
G01X6.4496Y-2.0103
M16
G05
G00X6.4496Y-2.1156
M15
G01X6.4496Y-2.155
M16
G05
T4
G00X6.5519Y-2.1678
M15
G01X6.5043Y-2.2425
M16
G05
G00X6.7562Y-2.1438
M15
G01X6.7547Y-2.1666
M16
G05
G00X5.8019Y-2.9178
M15
G01X5.7543Y-2.9925
M16
G05
G00X6.0062Y-2.8938
M15
G01X6.0047Y-2.9166
M16
G05
G00X6.5519Y-2.9178
M15
G01X6.5043Y-2.9925
M16
G05
G00X6.7562Y-2.8938
M15
G01X6.7547Y-2.9166
M16
G05
G00X5.8019Y-2.1678
M15
G01X5.7543Y-2.2425
M16
G05
G00X6.0062Y-2.1438
M15
G01X6.0047Y-2.1666
M16
G05
T0
M30
