G04 #@! TF.GenerationSoftware,KiCad,Pcbnew,(5.1.5)-3*
G04 #@! TF.CreationDate,2020-07-07T23:04:53+02:00*
G04 #@! TF.ProjectId,example,6578616d-706c-4652-9e6b-696361645f70,rev?*
G04 #@! TF.SameCoordinates,Original*
G04 #@! TF.FileFunction,Soldermask,Bot*
G04 #@! TF.FilePolarity,Negative*
%FSLAX46Y46*%
G04 Gerber Fmt 4.6, Leading zero omitted, Abs format (unit mm)*
G04 Created by KiCad (PCBNEW (5.1.5)-3) date 2020-07-07 23:04:53*
%MOMM*%
%LPD*%
G04 APERTURE LIST*
%ADD10C,0.100000*%
G04 APERTURE END LIST*
D10*
G36*
X200379487Y-84748996D02*
G01*
X200616253Y-84847068D01*
X200616255Y-84847069D01*
X200829339Y-84989447D01*
X201010553Y-85170661D01*
X201152932Y-85383747D01*
X201251004Y-85620513D01*
X201301000Y-85871861D01*
X201301000Y-86128139D01*
X201251004Y-86379487D01*
X201152932Y-86616253D01*
X201152931Y-86616255D01*
X201010553Y-86829339D01*
X200829339Y-87010553D01*
X200616255Y-87152931D01*
X200616254Y-87152932D01*
X200616253Y-87152932D01*
X200379487Y-87251004D01*
X200128139Y-87301000D01*
X199871861Y-87301000D01*
X199620513Y-87251004D01*
X199383747Y-87152932D01*
X199383746Y-87152932D01*
X199383745Y-87152931D01*
X199170661Y-87010553D01*
X198989447Y-86829339D01*
X198847069Y-86616255D01*
X198847068Y-86616253D01*
X198748996Y-86379487D01*
X198699000Y-86128139D01*
X198699000Y-85871861D01*
X198748996Y-85620513D01*
X198847068Y-85383747D01*
X198989447Y-85170661D01*
X199170661Y-84989447D01*
X199383745Y-84847069D01*
X199383747Y-84847068D01*
X199620513Y-84748996D01*
X199871861Y-84699000D01*
X200128139Y-84699000D01*
X200379487Y-84748996D01*
G37*
G36*
X143379487Y-84748996D02*
G01*
X143616253Y-84847068D01*
X143616255Y-84847069D01*
X143829339Y-84989447D01*
X144010553Y-85170661D01*
X144152932Y-85383747D01*
X144251004Y-85620513D01*
X144301000Y-85871861D01*
X144301000Y-86128139D01*
X144251004Y-86379487D01*
X144152932Y-86616253D01*
X144152931Y-86616255D01*
X144010553Y-86829339D01*
X143829339Y-87010553D01*
X143616255Y-87152931D01*
X143616254Y-87152932D01*
X143616253Y-87152932D01*
X143379487Y-87251004D01*
X143128139Y-87301000D01*
X142871861Y-87301000D01*
X142620513Y-87251004D01*
X142383747Y-87152932D01*
X142383746Y-87152932D01*
X142383745Y-87152931D01*
X142170661Y-87010553D01*
X141989447Y-86829339D01*
X141847069Y-86616255D01*
X141847068Y-86616253D01*
X141748996Y-86379487D01*
X141699000Y-86128139D01*
X141699000Y-85871861D01*
X141748996Y-85620513D01*
X141847068Y-85383747D01*
X141989447Y-85170661D01*
X142170661Y-84989447D01*
X142383745Y-84847069D01*
X142383747Y-84847068D01*
X142620513Y-84748996D01*
X142871861Y-84699000D01*
X143128139Y-84699000D01*
X143379487Y-84748996D01*
G37*
G36*
X186001000Y-85951000D02*
G01*
X184199000Y-85951000D01*
X184199000Y-84849000D01*
X186001000Y-84849000D01*
X186001000Y-85951000D01*
G37*
G36*
X192301000Y-85951000D02*
G01*
X190499000Y-85951000D01*
X190499000Y-84849000D01*
X192301000Y-84849000D01*
X192301000Y-85951000D01*
G37*
G36*
X154166978Y-82525453D02*
G01*
X154321850Y-82589603D01*
X154461231Y-82682735D01*
X154579765Y-82801269D01*
X154672897Y-82940650D01*
X154737047Y-83095522D01*
X154769750Y-83259934D01*
X154769750Y-83427566D01*
X154737047Y-83591978D01*
X154672897Y-83746850D01*
X154579765Y-83886231D01*
X154461231Y-84004765D01*
X154321850Y-84097897D01*
X154166978Y-84162047D01*
X154002566Y-84194750D01*
X153834934Y-84194750D01*
X153670522Y-84162047D01*
X153515650Y-84097897D01*
X153376269Y-84004765D01*
X153257735Y-83886231D01*
X153164603Y-83746850D01*
X153100453Y-83591978D01*
X153067750Y-83427566D01*
X153067750Y-83259934D01*
X153100453Y-83095522D01*
X153164603Y-82940650D01*
X153257735Y-82801269D01*
X153376269Y-82682735D01*
X153515650Y-82589603D01*
X153670522Y-82525453D01*
X153834934Y-82492750D01*
X154002566Y-82492750D01*
X154166978Y-82525453D01*
G37*
G36*
X146969750Y-84194750D02*
G01*
X145267750Y-84194750D01*
X145267750Y-82492750D01*
X146969750Y-82492750D01*
X146969750Y-84194750D01*
G37*
G36*
X182079852Y-82833833D02*
G01*
X182117545Y-82845267D01*
X182152281Y-82863834D01*
X182182726Y-82888820D01*
X182207712Y-82919265D01*
X182226279Y-82954001D01*
X182237713Y-82991694D01*
X182242178Y-83037029D01*
X182242178Y-83873707D01*
X182237713Y-83919042D01*
X182226279Y-83956735D01*
X182207712Y-83991471D01*
X182182726Y-84021916D01*
X182152281Y-84046902D01*
X182117545Y-84065469D01*
X182079852Y-84076903D01*
X182034517Y-84081368D01*
X180947839Y-84081368D01*
X180902504Y-84076903D01*
X180864811Y-84065469D01*
X180830075Y-84046902D01*
X180799630Y-84021916D01*
X180774644Y-83991471D01*
X180756077Y-83956735D01*
X180744643Y-83919042D01*
X180740178Y-83873707D01*
X180740178Y-83037029D01*
X180744643Y-82991694D01*
X180756077Y-82954001D01*
X180774644Y-82919265D01*
X180799630Y-82888820D01*
X180830075Y-82863834D01*
X180864811Y-82845267D01*
X180902504Y-82833833D01*
X180947839Y-82829368D01*
X182034517Y-82829368D01*
X182079852Y-82833833D01*
G37*
G36*
X149094750Y-83994750D02*
G01*
X147792750Y-83994750D01*
X147792750Y-82692750D01*
X149094750Y-82692750D01*
X149094750Y-83994750D01*
G37*
G36*
X152244750Y-83994750D02*
G01*
X150942750Y-83994750D01*
X150942750Y-82692750D01*
X152244750Y-82692750D01*
X152244750Y-83994750D01*
G37*
G36*
X165885483Y-83964504D02*
G01*
X164183483Y-83964504D01*
X164183483Y-82262504D01*
X165885483Y-82262504D01*
X165885483Y-83964504D01*
G37*
G36*
X173082711Y-82295207D02*
G01*
X173237583Y-82359357D01*
X173376964Y-82452489D01*
X173495498Y-82571023D01*
X173588630Y-82710404D01*
X173652780Y-82865276D01*
X173685483Y-83029688D01*
X173685483Y-83197320D01*
X173652780Y-83361732D01*
X173588630Y-83516604D01*
X173495498Y-83655985D01*
X173376964Y-83774519D01*
X173237583Y-83867651D01*
X173082711Y-83931801D01*
X172918299Y-83964504D01*
X172750667Y-83964504D01*
X172586255Y-83931801D01*
X172431383Y-83867651D01*
X172292002Y-83774519D01*
X172173468Y-83655985D01*
X172080336Y-83516604D01*
X172016186Y-83361732D01*
X171983483Y-83197320D01*
X171983483Y-83029688D01*
X172016186Y-82865276D01*
X172080336Y-82710404D01*
X172173468Y-82571023D01*
X172292002Y-82452489D01*
X172431383Y-82359357D01*
X172586255Y-82295207D01*
X172750667Y-82262504D01*
X172918299Y-82262504D01*
X173082711Y-82295207D01*
G37*
G36*
X168010483Y-83764504D02*
G01*
X166708483Y-83764504D01*
X166708483Y-82462504D01*
X168010483Y-82462504D01*
X168010483Y-83764504D01*
G37*
G36*
X171160483Y-83764504D02*
G01*
X169858483Y-83764504D01*
X169858483Y-82462504D01*
X171160483Y-82462504D01*
X171160483Y-83764504D01*
G37*
G36*
X192301000Y-82151000D02*
G01*
X190499000Y-82151000D01*
X190499000Y-81049000D01*
X192301000Y-81049000D01*
X192301000Y-82151000D01*
G37*
G36*
X186001000Y-82151000D02*
G01*
X184199000Y-82151000D01*
X184199000Y-81049000D01*
X186001000Y-81049000D01*
X186001000Y-82151000D01*
G37*
G36*
X182079852Y-80783833D02*
G01*
X182117545Y-80795267D01*
X182152281Y-80813834D01*
X182182726Y-80838820D01*
X182207712Y-80869265D01*
X182226279Y-80904001D01*
X182237713Y-80941694D01*
X182242178Y-80987029D01*
X182242178Y-81823707D01*
X182237713Y-81869042D01*
X182226279Y-81906735D01*
X182207712Y-81941471D01*
X182182726Y-81971916D01*
X182152281Y-81996902D01*
X182117545Y-82015469D01*
X182079852Y-82026903D01*
X182034517Y-82031368D01*
X180947839Y-82031368D01*
X180902504Y-82026903D01*
X180864811Y-82015469D01*
X180830075Y-81996902D01*
X180799630Y-81971916D01*
X180774644Y-81941471D01*
X180756077Y-81906735D01*
X180744643Y-81869042D01*
X180740178Y-81823707D01*
X180740178Y-80987029D01*
X180744643Y-80941694D01*
X180756077Y-80904001D01*
X180774644Y-80869265D01*
X180799630Y-80838820D01*
X180830075Y-80813834D01*
X180864811Y-80795267D01*
X180902504Y-80783833D01*
X180947839Y-80779368D01*
X182034517Y-80779368D01*
X182079852Y-80783833D01*
G37*
G36*
X147510044Y-72818486D02*
G01*
X147595221Y-72825003D01*
X147635003Y-72836129D01*
X147842025Y-72894027D01*
X148070620Y-73009875D01*
X148272222Y-73168093D01*
X148439084Y-73362603D01*
X148564793Y-73585928D01*
X148598093Y-73687661D01*
X148644518Y-73829489D01*
X148671810Y-74055849D01*
X148675194Y-74083917D01*
X148655645Y-74339445D01*
X148632491Y-74422233D01*
X148586620Y-74586250D01*
X148548309Y-74661846D01*
X148499800Y-74757566D01*
X147222204Y-76762988D01*
X147222202Y-76762990D01*
X147103630Y-76914076D01*
X146909123Y-77080936D01*
X146772505Y-77157837D01*
X146685795Y-77206646D01*
X146448584Y-77284292D01*
X146442234Y-77286371D01*
X146187807Y-77317047D01*
X146187806Y-77317047D01*
X145932279Y-77297498D01*
X145685475Y-77228473D01*
X145685474Y-77228473D01*
X145685472Y-77228472D01*
X145456885Y-77112628D01*
X145456883Y-77112627D01*
X145456880Y-77112625D01*
X145255278Y-76954407D01*
X145255274Y-76954404D01*
X145088417Y-76759900D01*
X144962708Y-76536573D01*
X144962707Y-76536572D01*
X144882983Y-76293014D01*
X144882982Y-76293011D01*
X144852306Y-76038584D01*
X144852306Y-76038583D01*
X144871855Y-75783056D01*
X144929580Y-75576656D01*
X144940880Y-75536251D01*
X145021520Y-75377130D01*
X145027700Y-75364935D01*
X146305295Y-73359512D01*
X146423869Y-73208425D01*
X146567802Y-73084951D01*
X146618380Y-73041562D01*
X146841698Y-72915856D01*
X146894782Y-72898480D01*
X147085261Y-72836130D01*
X147085262Y-72836130D01*
X147085265Y-72836129D01*
X147339691Y-72805453D01*
X147339693Y-72805453D01*
X147510044Y-72818486D01*
G37*
G36*
X166560044Y-72818486D02*
G01*
X166645221Y-72825003D01*
X166685003Y-72836129D01*
X166892025Y-72894027D01*
X167120620Y-73009875D01*
X167322222Y-73168093D01*
X167489084Y-73362603D01*
X167614793Y-73585928D01*
X167648093Y-73687661D01*
X167694518Y-73829489D01*
X167721810Y-74055849D01*
X167725194Y-74083917D01*
X167705645Y-74339445D01*
X167682491Y-74422233D01*
X167636620Y-74586250D01*
X167598309Y-74661846D01*
X167549800Y-74757566D01*
X166272204Y-76762988D01*
X166272202Y-76762990D01*
X166153630Y-76914076D01*
X165959123Y-77080936D01*
X165822505Y-77157837D01*
X165735795Y-77206646D01*
X165498584Y-77284292D01*
X165492234Y-77286371D01*
X165237807Y-77317047D01*
X165237806Y-77317047D01*
X164982279Y-77297498D01*
X164735475Y-77228473D01*
X164735474Y-77228473D01*
X164735472Y-77228472D01*
X164506885Y-77112628D01*
X164506883Y-77112627D01*
X164506880Y-77112625D01*
X164305278Y-76954407D01*
X164305274Y-76954404D01*
X164138417Y-76759900D01*
X164012708Y-76536573D01*
X164012707Y-76536572D01*
X163932983Y-76293014D01*
X163932982Y-76293011D01*
X163902306Y-76038584D01*
X163902306Y-76038583D01*
X163921855Y-75783056D01*
X163979580Y-75576656D01*
X163990880Y-75536251D01*
X164071520Y-75377130D01*
X164077700Y-75364935D01*
X165355295Y-73359512D01*
X165473869Y-73208425D01*
X165617802Y-73084951D01*
X165668380Y-73041562D01*
X165891698Y-72915856D01*
X165944782Y-72898480D01*
X166135261Y-72836130D01*
X166135262Y-72836130D01*
X166135265Y-72836129D01*
X166389691Y-72805453D01*
X166389693Y-72805453D01*
X166560044Y-72818486D01*
G37*
G36*
X194783273Y-76109954D02*
G01*
X186131273Y-76109954D01*
X186131273Y-74507954D01*
X194783273Y-74507954D01*
X194783273Y-76109954D01*
G37*
G36*
X200255979Y-74733870D02*
G01*
X200293672Y-74745304D01*
X200328408Y-74763871D01*
X200358853Y-74788857D01*
X200383839Y-74819302D01*
X200402406Y-74854038D01*
X200413840Y-74891731D01*
X200418305Y-74937066D01*
X200418305Y-75773744D01*
X200413840Y-75819079D01*
X200402406Y-75856772D01*
X200383839Y-75891508D01*
X200358853Y-75921953D01*
X200328408Y-75946939D01*
X200293672Y-75965506D01*
X200255979Y-75976940D01*
X200210644Y-75981405D01*
X199123966Y-75981405D01*
X199078631Y-75976940D01*
X199040938Y-75965506D01*
X199006202Y-75946939D01*
X198975757Y-75921953D01*
X198950771Y-75891508D01*
X198932204Y-75856772D01*
X198920770Y-75819079D01*
X198916305Y-75773744D01*
X198916305Y-74937066D01*
X198920770Y-74891731D01*
X198932204Y-74854038D01*
X198950771Y-74819302D01*
X198975757Y-74788857D01*
X199006202Y-74763871D01*
X199040938Y-74745304D01*
X199078631Y-74733870D01*
X199123966Y-74729405D01*
X200210644Y-74729405D01*
X200255979Y-74733870D01*
G37*
G36*
X181541433Y-74553106D02*
G01*
X181578929Y-74564481D01*
X181613488Y-74582953D01*
X181643781Y-74607814D01*
X181668642Y-74638107D01*
X181687114Y-74672666D01*
X181698489Y-74710162D01*
X181702934Y-74755299D01*
X181702934Y-75494023D01*
X181698489Y-75539160D01*
X181687114Y-75576656D01*
X181668642Y-75611215D01*
X181643781Y-75641508D01*
X181613488Y-75666369D01*
X181578929Y-75684841D01*
X181541433Y-75696216D01*
X181496296Y-75700661D01*
X180857572Y-75700661D01*
X180812435Y-75696216D01*
X180774939Y-75684841D01*
X180740380Y-75666369D01*
X180710087Y-75641508D01*
X180685226Y-75611215D01*
X180666754Y-75576656D01*
X180655379Y-75539160D01*
X180650934Y-75494023D01*
X180650934Y-74755299D01*
X180655379Y-74710162D01*
X180666754Y-74672666D01*
X180685226Y-74638107D01*
X180710087Y-74607814D01*
X180740380Y-74582953D01*
X180774939Y-74564481D01*
X180812435Y-74553106D01*
X180857572Y-74548661D01*
X181496296Y-74548661D01*
X181541433Y-74553106D01*
G37*
G36*
X152900129Y-72240063D02*
G01*
X153139741Y-72330963D01*
X153357015Y-72466863D01*
X153543602Y-72642538D01*
X153626684Y-72759123D01*
X153692330Y-72851240D01*
X153797485Y-73084947D01*
X153797486Y-73084951D01*
X153855026Y-73334678D01*
X153860808Y-73526644D01*
X153860807Y-73526652D01*
X153812666Y-74232821D01*
X153780885Y-74422233D01*
X153689985Y-74661845D01*
X153628371Y-74760352D01*
X153554085Y-74879119D01*
X153378410Y-75065706D01*
X153222148Y-75177063D01*
X153169708Y-75214434D01*
X152936001Y-75319589D01*
X152935997Y-75319590D01*
X152686271Y-75377130D01*
X152430116Y-75384844D01*
X152430112Y-75384844D01*
X152177371Y-75342437D01*
X151937759Y-75251537D01*
X151720485Y-75115637D01*
X151667453Y-75065706D01*
X151533898Y-74939962D01*
X151403916Y-74757565D01*
X151385170Y-74731260D01*
X151280015Y-74497553D01*
X151222474Y-74247821D01*
X151222022Y-74232821D01*
X151216692Y-74055858D01*
X151264834Y-73349678D01*
X151288535Y-73208425D01*
X151296615Y-73160267D01*
X151387515Y-72920655D01*
X151523415Y-72703381D01*
X151580700Y-72642538D01*
X151699090Y-72516794D01*
X151855352Y-72405437D01*
X151907792Y-72368066D01*
X152141499Y-72262911D01*
X152141503Y-72262910D01*
X152391229Y-72205370D01*
X152647384Y-72197656D01*
X152647388Y-72197656D01*
X152900129Y-72240063D01*
G37*
G36*
X171950129Y-72240063D02*
G01*
X172189741Y-72330963D01*
X172407015Y-72466863D01*
X172593602Y-72642538D01*
X172676684Y-72759123D01*
X172742330Y-72851240D01*
X172847485Y-73084947D01*
X172847486Y-73084951D01*
X172905026Y-73334678D01*
X172910808Y-73526644D01*
X172910807Y-73526652D01*
X172862666Y-74232821D01*
X172830885Y-74422233D01*
X172739985Y-74661845D01*
X172678371Y-74760352D01*
X172604085Y-74879119D01*
X172428410Y-75065706D01*
X172272148Y-75177063D01*
X172219708Y-75214434D01*
X171986001Y-75319589D01*
X171985997Y-75319590D01*
X171736271Y-75377130D01*
X171480116Y-75384844D01*
X171480112Y-75384844D01*
X171227371Y-75342437D01*
X170987759Y-75251537D01*
X170770485Y-75115637D01*
X170717453Y-75065706D01*
X170583898Y-74939962D01*
X170453916Y-74757565D01*
X170435170Y-74731260D01*
X170330015Y-74497553D01*
X170272474Y-74247821D01*
X170272022Y-74232821D01*
X170266692Y-74055858D01*
X170314834Y-73349678D01*
X170338535Y-73208425D01*
X170346615Y-73160267D01*
X170437515Y-72920655D01*
X170573415Y-72703381D01*
X170630700Y-72642538D01*
X170749090Y-72516794D01*
X170905352Y-72405437D01*
X170957792Y-72368066D01*
X171191499Y-72262911D01*
X171191503Y-72262910D01*
X171441229Y-72205370D01*
X171697384Y-72197656D01*
X171697388Y-72197656D01*
X171950129Y-72240063D01*
G37*
G36*
X181541433Y-72803106D02*
G01*
X181578929Y-72814481D01*
X181613488Y-72832953D01*
X181643781Y-72857814D01*
X181668642Y-72888107D01*
X181687114Y-72922666D01*
X181698489Y-72960162D01*
X181702934Y-73005299D01*
X181702934Y-73744023D01*
X181698489Y-73789160D01*
X181687114Y-73826656D01*
X181668642Y-73861215D01*
X181643781Y-73891508D01*
X181613488Y-73916369D01*
X181578929Y-73934841D01*
X181541433Y-73946216D01*
X181496296Y-73950661D01*
X180857572Y-73950661D01*
X180812435Y-73946216D01*
X180774939Y-73934841D01*
X180740380Y-73916369D01*
X180710087Y-73891508D01*
X180685226Y-73861215D01*
X180666754Y-73826656D01*
X180655379Y-73789160D01*
X180650934Y-73744023D01*
X180650934Y-73005299D01*
X180655379Y-72960162D01*
X180666754Y-72922666D01*
X180685226Y-72888107D01*
X180710087Y-72857814D01*
X180740380Y-72832953D01*
X180774939Y-72814481D01*
X180812435Y-72803106D01*
X180857572Y-72798661D01*
X181496296Y-72798661D01*
X181541433Y-72803106D01*
G37*
G36*
X185558273Y-73934954D02*
G01*
X183956273Y-73934954D01*
X183956273Y-65282954D01*
X185558273Y-65282954D01*
X185558273Y-73934954D01*
G37*
G36*
X196958273Y-73934954D02*
G01*
X195356273Y-73934954D01*
X195356273Y-65282954D01*
X196958273Y-65282954D01*
X196958273Y-73934954D01*
G37*
G36*
X200255979Y-72683870D02*
G01*
X200293672Y-72695304D01*
X200328408Y-72713871D01*
X200358853Y-72738857D01*
X200383839Y-72769302D01*
X200402406Y-72804038D01*
X200413840Y-72841731D01*
X200418305Y-72887066D01*
X200418305Y-73723744D01*
X200413840Y-73769079D01*
X200402406Y-73806772D01*
X200383839Y-73841508D01*
X200358853Y-73871953D01*
X200328408Y-73896939D01*
X200293672Y-73915506D01*
X200255979Y-73926940D01*
X200210644Y-73931405D01*
X199123966Y-73931405D01*
X199078631Y-73926940D01*
X199040938Y-73915506D01*
X199006202Y-73896939D01*
X198975757Y-73871953D01*
X198950771Y-73841508D01*
X198932204Y-73806772D01*
X198920770Y-73769079D01*
X198916305Y-73723744D01*
X198916305Y-72887066D01*
X198920770Y-72841731D01*
X198932204Y-72804038D01*
X198950771Y-72769302D01*
X198975757Y-72738857D01*
X199006202Y-72713871D01*
X199040938Y-72695304D01*
X199078631Y-72683870D01*
X199123966Y-72679405D01*
X200210644Y-72679405D01*
X200255979Y-72683870D01*
G37*
G36*
X200370553Y-70024086D02*
G01*
X200408246Y-70035520D01*
X200442982Y-70054087D01*
X200473427Y-70079073D01*
X200498413Y-70109518D01*
X200516980Y-70144254D01*
X200528414Y-70181947D01*
X200532879Y-70227282D01*
X200532879Y-71063960D01*
X200528414Y-71109295D01*
X200516980Y-71146988D01*
X200498413Y-71181724D01*
X200473427Y-71212169D01*
X200442982Y-71237155D01*
X200408246Y-71255722D01*
X200370553Y-71267156D01*
X200325218Y-71271621D01*
X199238540Y-71271621D01*
X199193205Y-71267156D01*
X199155512Y-71255722D01*
X199120776Y-71237155D01*
X199090331Y-71212169D01*
X199065345Y-71181724D01*
X199046778Y-71146988D01*
X199035344Y-71109295D01*
X199030879Y-71063960D01*
X199030879Y-70227282D01*
X199035344Y-70181947D01*
X199046778Y-70144254D01*
X199065345Y-70109518D01*
X199090331Y-70079073D01*
X199120776Y-70054087D01*
X199155512Y-70035520D01*
X199193205Y-70024086D01*
X199238540Y-70019621D01*
X200325218Y-70019621D01*
X200370553Y-70024086D01*
G37*
G36*
X181766603Y-69980227D02*
G01*
X181804296Y-69991661D01*
X181839032Y-70010228D01*
X181869477Y-70035214D01*
X181894463Y-70065659D01*
X181913030Y-70100395D01*
X181924464Y-70138088D01*
X181928929Y-70183423D01*
X181928929Y-71020101D01*
X181924464Y-71065436D01*
X181913030Y-71103129D01*
X181894463Y-71137865D01*
X181869477Y-71168310D01*
X181839032Y-71193296D01*
X181804296Y-71211863D01*
X181766603Y-71223297D01*
X181721268Y-71227762D01*
X180634590Y-71227762D01*
X180589255Y-71223297D01*
X180551562Y-71211863D01*
X180516826Y-71193296D01*
X180486381Y-71168310D01*
X180461395Y-71137865D01*
X180442828Y-71103129D01*
X180431394Y-71065436D01*
X180426929Y-71020101D01*
X180426929Y-70183423D01*
X180431394Y-70138088D01*
X180442828Y-70100395D01*
X180461395Y-70065659D01*
X180486381Y-70035214D01*
X180516826Y-70010228D01*
X180551562Y-69991661D01*
X180589255Y-69980227D01*
X180634590Y-69975762D01*
X181721268Y-69975762D01*
X181766603Y-69980227D01*
G37*
G36*
X200370553Y-67974086D02*
G01*
X200408246Y-67985520D01*
X200442982Y-68004087D01*
X200473427Y-68029073D01*
X200498413Y-68059518D01*
X200516980Y-68094254D01*
X200528414Y-68131947D01*
X200532879Y-68177282D01*
X200532879Y-69013960D01*
X200528414Y-69059295D01*
X200516980Y-69096988D01*
X200498413Y-69131724D01*
X200473427Y-69162169D01*
X200442982Y-69187155D01*
X200408246Y-69205722D01*
X200370553Y-69217156D01*
X200325218Y-69221621D01*
X199238540Y-69221621D01*
X199193205Y-69217156D01*
X199155512Y-69205722D01*
X199120776Y-69187155D01*
X199090331Y-69162169D01*
X199065345Y-69131724D01*
X199046778Y-69096988D01*
X199035344Y-69059295D01*
X199030879Y-69013960D01*
X199030879Y-68177282D01*
X199035344Y-68131947D01*
X199046778Y-68094254D01*
X199065345Y-68059518D01*
X199090331Y-68029073D01*
X199120776Y-68004087D01*
X199155512Y-67985520D01*
X199193205Y-67974086D01*
X199238540Y-67969621D01*
X200325218Y-67969621D01*
X200370553Y-67974086D01*
G37*
G36*
X181766603Y-67930227D02*
G01*
X181804296Y-67941661D01*
X181839032Y-67960228D01*
X181869477Y-67985214D01*
X181894463Y-68015659D01*
X181913030Y-68050395D01*
X181924464Y-68088088D01*
X181928929Y-68133423D01*
X181928929Y-68970101D01*
X181924464Y-69015436D01*
X181913030Y-69053129D01*
X181894463Y-69087865D01*
X181869477Y-69118310D01*
X181839032Y-69143296D01*
X181804296Y-69161863D01*
X181766603Y-69173297D01*
X181721268Y-69177762D01*
X180634590Y-69177762D01*
X180589255Y-69173297D01*
X180551562Y-69161863D01*
X180516826Y-69143296D01*
X180486381Y-69118310D01*
X180461395Y-69087865D01*
X180442828Y-69053129D01*
X180431394Y-69015436D01*
X180426929Y-68970101D01*
X180426929Y-68133423D01*
X180431394Y-68088088D01*
X180442828Y-68050395D01*
X180461395Y-68015659D01*
X180486381Y-67985214D01*
X180516826Y-67960228D01*
X180551562Y-67941661D01*
X180589255Y-67930227D01*
X180634590Y-67925762D01*
X181721268Y-67925762D01*
X181766603Y-67930227D01*
G37*
G36*
X200404280Y-65376857D02*
G01*
X200441973Y-65388291D01*
X200476709Y-65406858D01*
X200507154Y-65431844D01*
X200532140Y-65462289D01*
X200550707Y-65497025D01*
X200562141Y-65534718D01*
X200566606Y-65580053D01*
X200566606Y-66416731D01*
X200562141Y-66462066D01*
X200550707Y-66499759D01*
X200532140Y-66534495D01*
X200507154Y-66564940D01*
X200476709Y-66589926D01*
X200441973Y-66608493D01*
X200404280Y-66619927D01*
X200358945Y-66624392D01*
X199272267Y-66624392D01*
X199226932Y-66619927D01*
X199189239Y-66608493D01*
X199154503Y-66589926D01*
X199124058Y-66564940D01*
X199099072Y-66534495D01*
X199080505Y-66499759D01*
X199069071Y-66462066D01*
X199064606Y-66416731D01*
X199064606Y-65580053D01*
X199069071Y-65534718D01*
X199080505Y-65497025D01*
X199099072Y-65462289D01*
X199124058Y-65431844D01*
X199154503Y-65406858D01*
X199189239Y-65388291D01*
X199226932Y-65376857D01*
X199272267Y-65372392D01*
X200358945Y-65372392D01*
X200404280Y-65376857D01*
G37*
G36*
X181781171Y-65280077D02*
G01*
X181818864Y-65291511D01*
X181853600Y-65310078D01*
X181884045Y-65335064D01*
X181909031Y-65365509D01*
X181927598Y-65400245D01*
X181939032Y-65437938D01*
X181943497Y-65483273D01*
X181943497Y-66319951D01*
X181939032Y-66365286D01*
X181927598Y-66402979D01*
X181909031Y-66437715D01*
X181884045Y-66468160D01*
X181853600Y-66493146D01*
X181818864Y-66511713D01*
X181781171Y-66523147D01*
X181735836Y-66527612D01*
X180649158Y-66527612D01*
X180603823Y-66523147D01*
X180566130Y-66511713D01*
X180531394Y-66493146D01*
X180500949Y-66468160D01*
X180475963Y-66437715D01*
X180457396Y-66402979D01*
X180445962Y-66365286D01*
X180441497Y-66319951D01*
X180441497Y-65483273D01*
X180445962Y-65437938D01*
X180457396Y-65400245D01*
X180475963Y-65365509D01*
X180500949Y-65335064D01*
X180531394Y-65310078D01*
X180566130Y-65291511D01*
X180603823Y-65280077D01*
X180649158Y-65275612D01*
X181735836Y-65275612D01*
X181781171Y-65280077D01*
G37*
G36*
X165809501Y-65185521D02*
G01*
X164107501Y-65185521D01*
X164107501Y-63483521D01*
X165809501Y-63483521D01*
X165809501Y-65185521D01*
G37*
G36*
X173006729Y-63516224D02*
G01*
X173161601Y-63580374D01*
X173300982Y-63673506D01*
X173419516Y-63792040D01*
X173512648Y-63931421D01*
X173576798Y-64086293D01*
X173609501Y-64250705D01*
X173609501Y-64418337D01*
X173576798Y-64582749D01*
X173512648Y-64737621D01*
X173419516Y-64877002D01*
X173300982Y-64995536D01*
X173161601Y-65088668D01*
X173006729Y-65152818D01*
X172842317Y-65185521D01*
X172674685Y-65185521D01*
X172510273Y-65152818D01*
X172355401Y-65088668D01*
X172216020Y-64995536D01*
X172097486Y-64877002D01*
X172004354Y-64737621D01*
X171940204Y-64582749D01*
X171907501Y-64418337D01*
X171907501Y-64250705D01*
X171940204Y-64086293D01*
X172004354Y-63931421D01*
X172097486Y-63792040D01*
X172216020Y-63673506D01*
X172355401Y-63580374D01*
X172510273Y-63516224D01*
X172674685Y-63483521D01*
X172842317Y-63483521D01*
X173006729Y-63516224D01*
G37*
G36*
X146651000Y-65144750D02*
G01*
X144949000Y-65144750D01*
X144949000Y-63442750D01*
X146651000Y-63442750D01*
X146651000Y-65144750D01*
G37*
G36*
X153848228Y-63475453D02*
G01*
X154003100Y-63539603D01*
X154142481Y-63632735D01*
X154261015Y-63751269D01*
X154354147Y-63890650D01*
X154418297Y-64045522D01*
X154451000Y-64209934D01*
X154451000Y-64377566D01*
X154418297Y-64541978D01*
X154354147Y-64696850D01*
X154261015Y-64836231D01*
X154142481Y-64954765D01*
X154003100Y-65047897D01*
X153848228Y-65112047D01*
X153683816Y-65144750D01*
X153516184Y-65144750D01*
X153351772Y-65112047D01*
X153196900Y-65047897D01*
X153057519Y-64954765D01*
X152938985Y-64836231D01*
X152845853Y-64696850D01*
X152781703Y-64541978D01*
X152749000Y-64377566D01*
X152749000Y-64209934D01*
X152781703Y-64045522D01*
X152845853Y-63890650D01*
X152938985Y-63751269D01*
X153057519Y-63632735D01*
X153196900Y-63539603D01*
X153351772Y-63475453D01*
X153516184Y-63442750D01*
X153683816Y-63442750D01*
X153848228Y-63475453D01*
G37*
G36*
X171084501Y-64985521D02*
G01*
X169782501Y-64985521D01*
X169782501Y-63683521D01*
X171084501Y-63683521D01*
X171084501Y-64985521D01*
G37*
G36*
X167934501Y-64985521D02*
G01*
X166632501Y-64985521D01*
X166632501Y-63683521D01*
X167934501Y-63683521D01*
X167934501Y-64985521D01*
G37*
G36*
X148776000Y-64944750D02*
G01*
X147474000Y-64944750D01*
X147474000Y-63642750D01*
X148776000Y-63642750D01*
X148776000Y-64944750D01*
G37*
G36*
X151926000Y-64944750D02*
G01*
X150624000Y-64944750D01*
X150624000Y-63642750D01*
X151926000Y-63642750D01*
X151926000Y-64944750D01*
G37*
G36*
X194783273Y-64709954D02*
G01*
X186131273Y-64709954D01*
X186131273Y-63107954D01*
X194783273Y-63107954D01*
X194783273Y-64709954D01*
G37*
G36*
X200404280Y-63326857D02*
G01*
X200441973Y-63338291D01*
X200476709Y-63356858D01*
X200507154Y-63381844D01*
X200532140Y-63412289D01*
X200550707Y-63447025D01*
X200562141Y-63484718D01*
X200566606Y-63530053D01*
X200566606Y-64366731D01*
X200562141Y-64412066D01*
X200550707Y-64449759D01*
X200532140Y-64484495D01*
X200507154Y-64514940D01*
X200476709Y-64539926D01*
X200441973Y-64558493D01*
X200404280Y-64569927D01*
X200358945Y-64574392D01*
X199272267Y-64574392D01*
X199226932Y-64569927D01*
X199189239Y-64558493D01*
X199154503Y-64539926D01*
X199124058Y-64514940D01*
X199099072Y-64484495D01*
X199080505Y-64449759D01*
X199069071Y-64412066D01*
X199064606Y-64366731D01*
X199064606Y-63530053D01*
X199069071Y-63484718D01*
X199080505Y-63447025D01*
X199099072Y-63412289D01*
X199124058Y-63381844D01*
X199154503Y-63356858D01*
X199189239Y-63338291D01*
X199226932Y-63326857D01*
X199272267Y-63322392D01*
X200358945Y-63322392D01*
X200404280Y-63326857D01*
G37*
G36*
X181781171Y-63230077D02*
G01*
X181818864Y-63241511D01*
X181853600Y-63260078D01*
X181884045Y-63285064D01*
X181909031Y-63315509D01*
X181927598Y-63350245D01*
X181939032Y-63387938D01*
X181943497Y-63433273D01*
X181943497Y-64269951D01*
X181939032Y-64315286D01*
X181927598Y-64352979D01*
X181909031Y-64387715D01*
X181884045Y-64418160D01*
X181853600Y-64443146D01*
X181818864Y-64461713D01*
X181781171Y-64473147D01*
X181735836Y-64477612D01*
X180649158Y-64477612D01*
X180603823Y-64473147D01*
X180566130Y-64461713D01*
X180531394Y-64443146D01*
X180500949Y-64418160D01*
X180475963Y-64387715D01*
X180457396Y-64352979D01*
X180445962Y-64315286D01*
X180441497Y-64269951D01*
X180441497Y-63433273D01*
X180445962Y-63387938D01*
X180457396Y-63350245D01*
X180475963Y-63315509D01*
X180500949Y-63285064D01*
X180531394Y-63260078D01*
X180566130Y-63241511D01*
X180603823Y-63230077D01*
X180649158Y-63225612D01*
X181735836Y-63225612D01*
X181781171Y-63230077D01*
G37*
G36*
X191218118Y-58485786D02*
G01*
X190156043Y-59547861D01*
X189235390Y-58627208D01*
X190297465Y-57565133D01*
X191218118Y-58485786D01*
G37*
G36*
X180950682Y-57957877D02*
G01*
X180988375Y-57969311D01*
X181023111Y-57987878D01*
X181053556Y-58012864D01*
X181078542Y-58043309D01*
X181097109Y-58078045D01*
X181108543Y-58115738D01*
X181113008Y-58161073D01*
X181113008Y-58997751D01*
X181108543Y-59043086D01*
X181097109Y-59080779D01*
X181078542Y-59115515D01*
X181053556Y-59145960D01*
X181023111Y-59170946D01*
X180988375Y-59189513D01*
X180950682Y-59200947D01*
X180905347Y-59205412D01*
X179818669Y-59205412D01*
X179773334Y-59200947D01*
X179735641Y-59189513D01*
X179700905Y-59170946D01*
X179670460Y-59145960D01*
X179645474Y-59115515D01*
X179626907Y-59080779D01*
X179615473Y-59043086D01*
X179611008Y-58997751D01*
X179611008Y-58161073D01*
X179615473Y-58115738D01*
X179626907Y-58078045D01*
X179645474Y-58043309D01*
X179670460Y-58012864D01*
X179700905Y-57987878D01*
X179735641Y-57969311D01*
X179773334Y-57957877D01*
X179818669Y-57953412D01*
X180905347Y-57953412D01*
X180950682Y-57957877D01*
G37*
G36*
X185340525Y-57951543D02*
G01*
X185378218Y-57962977D01*
X185412954Y-57981544D01*
X185443399Y-58006530D01*
X185468385Y-58036975D01*
X185486952Y-58071711D01*
X185498386Y-58109404D01*
X185502851Y-58154739D01*
X185502851Y-58991417D01*
X185498386Y-59036752D01*
X185486952Y-59074445D01*
X185468385Y-59109181D01*
X185443399Y-59139626D01*
X185412954Y-59164612D01*
X185378218Y-59183179D01*
X185340525Y-59194613D01*
X185295190Y-59199078D01*
X184208512Y-59199078D01*
X184163177Y-59194613D01*
X184125484Y-59183179D01*
X184090748Y-59164612D01*
X184060303Y-59139626D01*
X184035317Y-59109181D01*
X184016750Y-59074445D01*
X184005316Y-59036752D01*
X184000851Y-58991417D01*
X184000851Y-58154739D01*
X184005316Y-58109404D01*
X184016750Y-58071711D01*
X184035317Y-58036975D01*
X184060303Y-58006530D01*
X184090748Y-57981544D01*
X184125484Y-57962977D01*
X184163177Y-57951543D01*
X184208512Y-57947078D01*
X185295190Y-57947078D01*
X185340525Y-57951543D01*
G37*
G36*
X197240576Y-57600402D02*
G01*
X197278269Y-57611836D01*
X197313005Y-57630403D01*
X197343450Y-57655389D01*
X197368436Y-57685834D01*
X197387003Y-57720570D01*
X197398437Y-57758263D01*
X197402902Y-57803598D01*
X197402902Y-58640276D01*
X197398437Y-58685611D01*
X197387003Y-58723304D01*
X197368436Y-58758040D01*
X197343450Y-58788485D01*
X197313005Y-58813471D01*
X197278269Y-58832038D01*
X197240576Y-58843472D01*
X197195241Y-58847937D01*
X196108563Y-58847937D01*
X196063228Y-58843472D01*
X196025535Y-58832038D01*
X195990799Y-58813471D01*
X195960354Y-58788485D01*
X195935368Y-58758040D01*
X195916801Y-58723304D01*
X195905367Y-58685611D01*
X195900902Y-58640276D01*
X195900902Y-57803598D01*
X195905367Y-57758263D01*
X195916801Y-57720570D01*
X195935368Y-57685834D01*
X195960354Y-57655389D01*
X195990799Y-57630403D01*
X196025535Y-57611836D01*
X196063228Y-57600402D01*
X196108563Y-57595937D01*
X197195241Y-57595937D01*
X197240576Y-57600402D01*
G37*
G36*
X190016036Y-57283704D02*
G01*
X188953961Y-58345779D01*
X188033308Y-57425126D01*
X189095383Y-56363051D01*
X190016036Y-57283704D01*
G37*
G36*
X147510044Y-53768486D02*
G01*
X147595221Y-53775003D01*
X147631463Y-53785139D01*
X147842025Y-53844027D01*
X148070620Y-53959875D01*
X148070622Y-53959876D01*
X148070623Y-53959877D01*
X148197052Y-54059099D01*
X148272222Y-54118093D01*
X148439084Y-54312603D01*
X148564793Y-54535928D01*
X148607368Y-54665996D01*
X148644518Y-54779489D01*
X148665001Y-54949379D01*
X148675194Y-55033917D01*
X148655645Y-55289445D01*
X148632491Y-55372233D01*
X148586620Y-55536250D01*
X148548309Y-55611846D01*
X148499800Y-55707566D01*
X147222204Y-57712988D01*
X147186672Y-57758263D01*
X147103630Y-57864076D01*
X146909123Y-58030936D01*
X146825432Y-58078045D01*
X146685795Y-58156646D01*
X146475185Y-58225585D01*
X146442234Y-58236371D01*
X146187807Y-58267047D01*
X146187806Y-58267047D01*
X145932279Y-58247498D01*
X145685475Y-58178473D01*
X145685474Y-58178473D01*
X145685472Y-58178472D01*
X145456885Y-58062628D01*
X145456883Y-58062627D01*
X145456880Y-58062625D01*
X145255278Y-57904407D01*
X145255274Y-57904404D01*
X145088417Y-57709900D01*
X144962708Y-57486573D01*
X144962707Y-57486572D01*
X144882983Y-57243014D01*
X144882982Y-57243011D01*
X144852306Y-56988584D01*
X144852446Y-56986752D01*
X144871855Y-56733056D01*
X144940880Y-56486252D01*
X144940880Y-56486251D01*
X145021520Y-56327130D01*
X145027700Y-56314935D01*
X146305295Y-54309512D01*
X146423869Y-54158425D01*
X146547945Y-54051985D01*
X146618380Y-53991562D01*
X146841698Y-53865856D01*
X146841704Y-53865854D01*
X147085261Y-53786130D01*
X147085262Y-53786130D01*
X147085265Y-53786129D01*
X147339691Y-53755453D01*
X147339693Y-53755453D01*
X147510044Y-53768486D01*
G37*
G36*
X166560044Y-53768486D02*
G01*
X166645221Y-53775003D01*
X166681463Y-53785139D01*
X166892025Y-53844027D01*
X167120620Y-53959875D01*
X167120622Y-53959876D01*
X167120623Y-53959877D01*
X167247052Y-54059099D01*
X167322222Y-54118093D01*
X167489084Y-54312603D01*
X167614793Y-54535928D01*
X167657368Y-54665996D01*
X167694518Y-54779489D01*
X167715001Y-54949379D01*
X167725194Y-55033917D01*
X167705645Y-55289445D01*
X167682491Y-55372233D01*
X167636620Y-55536250D01*
X167598309Y-55611846D01*
X167549800Y-55707566D01*
X166272204Y-57712988D01*
X166236672Y-57758263D01*
X166153630Y-57864076D01*
X165959123Y-58030936D01*
X165875432Y-58078045D01*
X165735795Y-58156646D01*
X165525185Y-58225585D01*
X165492234Y-58236371D01*
X165237807Y-58267047D01*
X165237806Y-58267047D01*
X164982279Y-58247498D01*
X164735475Y-58178473D01*
X164735474Y-58178473D01*
X164735472Y-58178472D01*
X164506885Y-58062628D01*
X164506883Y-58062627D01*
X164506880Y-58062625D01*
X164305278Y-57904407D01*
X164305274Y-57904404D01*
X164138417Y-57709900D01*
X164012708Y-57486573D01*
X164012707Y-57486572D01*
X163932983Y-57243014D01*
X163932982Y-57243011D01*
X163902306Y-56988584D01*
X163902446Y-56986752D01*
X163921855Y-56733056D01*
X163990880Y-56486252D01*
X163990880Y-56486251D01*
X164071520Y-56327130D01*
X164077700Y-56314935D01*
X165355295Y-54309512D01*
X165473869Y-54158425D01*
X165597945Y-54051985D01*
X165668380Y-53991562D01*
X165891698Y-53865856D01*
X165891704Y-53865854D01*
X166135261Y-53786130D01*
X166135262Y-53786130D01*
X166135265Y-53786129D01*
X166389691Y-53755453D01*
X166389693Y-53755453D01*
X166560044Y-53768486D01*
G37*
G36*
X192915174Y-56788730D02*
G01*
X191853099Y-57850805D01*
X190932446Y-56930152D01*
X191994521Y-55868077D01*
X192915174Y-56788730D01*
G37*
G36*
X180950682Y-55907877D02*
G01*
X180988375Y-55919311D01*
X181023111Y-55937878D01*
X181053556Y-55962864D01*
X181078542Y-55993309D01*
X181097109Y-56028045D01*
X181108543Y-56065738D01*
X181113008Y-56111073D01*
X181113008Y-56947751D01*
X181108543Y-56993086D01*
X181097109Y-57030779D01*
X181078542Y-57065515D01*
X181053556Y-57095960D01*
X181023111Y-57120946D01*
X180988375Y-57139513D01*
X180950682Y-57150947D01*
X180905347Y-57155412D01*
X179818669Y-57155412D01*
X179773334Y-57150947D01*
X179735641Y-57139513D01*
X179700905Y-57120946D01*
X179670460Y-57095960D01*
X179645474Y-57065515D01*
X179626907Y-57030779D01*
X179615473Y-56993086D01*
X179611008Y-56947751D01*
X179611008Y-56111073D01*
X179615473Y-56065738D01*
X179626907Y-56028045D01*
X179645474Y-55993309D01*
X179670460Y-55962864D01*
X179700905Y-55937878D01*
X179735641Y-55919311D01*
X179773334Y-55907877D01*
X179818669Y-55903412D01*
X180905347Y-55903412D01*
X180950682Y-55907877D01*
G37*
G36*
X185340525Y-55901543D02*
G01*
X185378218Y-55912977D01*
X185412954Y-55931544D01*
X185443399Y-55956530D01*
X185468385Y-55986975D01*
X185486952Y-56021711D01*
X185498386Y-56059404D01*
X185502851Y-56104739D01*
X185502851Y-56941417D01*
X185498386Y-56986752D01*
X185486952Y-57024445D01*
X185468385Y-57059181D01*
X185443399Y-57089626D01*
X185412954Y-57114612D01*
X185378218Y-57133179D01*
X185340525Y-57144613D01*
X185295190Y-57149078D01*
X184208512Y-57149078D01*
X184163177Y-57144613D01*
X184125484Y-57133179D01*
X184090748Y-57114612D01*
X184060303Y-57089626D01*
X184035317Y-57059181D01*
X184016750Y-57024445D01*
X184005316Y-56986752D01*
X184000851Y-56941417D01*
X184000851Y-56104739D01*
X184005316Y-56059404D01*
X184016750Y-56021711D01*
X184035317Y-55986975D01*
X184060303Y-55956530D01*
X184090748Y-55931544D01*
X184125484Y-55912977D01*
X184163177Y-55901543D01*
X184208512Y-55897078D01*
X185295190Y-55897078D01*
X185340525Y-55901543D01*
G37*
G36*
X197240576Y-55550402D02*
G01*
X197278269Y-55561836D01*
X197313005Y-55580403D01*
X197343450Y-55605389D01*
X197368436Y-55635834D01*
X197387003Y-55670570D01*
X197398437Y-55708263D01*
X197402902Y-55753598D01*
X197402902Y-56590276D01*
X197398437Y-56635611D01*
X197387003Y-56673304D01*
X197368436Y-56708040D01*
X197343450Y-56738485D01*
X197313005Y-56763471D01*
X197278269Y-56782038D01*
X197240576Y-56793472D01*
X197195241Y-56797937D01*
X196108563Y-56797937D01*
X196063228Y-56793472D01*
X196025535Y-56782038D01*
X195990799Y-56763471D01*
X195960354Y-56738485D01*
X195935368Y-56708040D01*
X195916801Y-56673304D01*
X195905367Y-56635611D01*
X195900902Y-56590276D01*
X195900902Y-55753598D01*
X195905367Y-55708263D01*
X195916801Y-55670570D01*
X195935368Y-55635834D01*
X195960354Y-55605389D01*
X195990799Y-55580403D01*
X196025535Y-55561836D01*
X196063228Y-55550402D01*
X196108563Y-55545937D01*
X197195241Y-55545937D01*
X197240576Y-55550402D01*
G37*
G36*
X191713092Y-55586648D02*
G01*
X190651017Y-56648723D01*
X189730364Y-55728070D01*
X190792439Y-54665995D01*
X191713092Y-55586648D01*
G37*
G36*
X152900129Y-53190063D02*
G01*
X153139741Y-53280963D01*
X153294127Y-53377528D01*
X153357015Y-53416863D01*
X153543602Y-53592538D01*
X153646014Y-53736248D01*
X153692330Y-53801240D01*
X153797485Y-54034947D01*
X153797486Y-54034951D01*
X153855026Y-54284678D01*
X153860808Y-54476644D01*
X153860807Y-54476652D01*
X153812666Y-55182821D01*
X153780885Y-55372233D01*
X153689985Y-55611845D01*
X153629678Y-55708263D01*
X153554085Y-55829119D01*
X153378410Y-56015706D01*
X153228569Y-56122487D01*
X153169708Y-56164434D01*
X152936001Y-56269589D01*
X152935997Y-56269590D01*
X152686271Y-56327130D01*
X152430116Y-56334844D01*
X152430112Y-56334844D01*
X152177371Y-56292437D01*
X151937759Y-56201537D01*
X151720485Y-56065637D01*
X151667453Y-56015706D01*
X151533898Y-55889962D01*
X151408469Y-55713954D01*
X151385170Y-55681260D01*
X151280015Y-55447553D01*
X151234271Y-55249021D01*
X151222474Y-55197822D01*
X151216692Y-55005858D01*
X151264834Y-54299678D01*
X151288535Y-54158425D01*
X151296615Y-54110267D01*
X151387515Y-53870655D01*
X151523415Y-53653381D01*
X151580700Y-53592538D01*
X151699090Y-53466794D01*
X151868596Y-53345999D01*
X151907792Y-53318066D01*
X152141499Y-53212911D01*
X152191249Y-53201448D01*
X152391229Y-53155370D01*
X152647384Y-53147656D01*
X152647388Y-53147656D01*
X152900129Y-53190063D01*
G37*
G36*
X171950129Y-53190063D02*
G01*
X172189741Y-53280963D01*
X172344127Y-53377528D01*
X172407015Y-53416863D01*
X172593602Y-53592538D01*
X172696014Y-53736248D01*
X172742330Y-53801240D01*
X172847485Y-54034947D01*
X172847486Y-54034951D01*
X172905026Y-54284678D01*
X172910808Y-54476644D01*
X172910807Y-54476652D01*
X172862666Y-55182821D01*
X172830885Y-55372233D01*
X172739985Y-55611845D01*
X172679678Y-55708263D01*
X172604085Y-55829119D01*
X172428410Y-56015706D01*
X172278569Y-56122487D01*
X172219708Y-56164434D01*
X171986001Y-56269589D01*
X171985997Y-56269590D01*
X171736271Y-56327130D01*
X171480116Y-56334844D01*
X171480112Y-56334844D01*
X171227371Y-56292437D01*
X170987759Y-56201537D01*
X170770485Y-56065637D01*
X170717453Y-56015706D01*
X170583898Y-55889962D01*
X170458469Y-55713954D01*
X170435170Y-55681260D01*
X170330015Y-55447553D01*
X170284271Y-55249021D01*
X170272474Y-55197822D01*
X170266692Y-55005858D01*
X170314834Y-54299678D01*
X170338535Y-54158425D01*
X170346615Y-54110267D01*
X170437515Y-53870655D01*
X170573415Y-53653381D01*
X170630700Y-53592538D01*
X170749090Y-53466794D01*
X170918596Y-53345999D01*
X170957792Y-53318066D01*
X171191499Y-53212911D01*
X171241249Y-53201448D01*
X171441229Y-53155370D01*
X171697384Y-53147656D01*
X171697388Y-53147656D01*
X171950129Y-53190063D01*
G37*
G36*
X163928014Y-53194473D02*
G01*
X164031878Y-53225979D01*
X164057847Y-53239860D01*
X164127599Y-53277143D01*
X164127601Y-53277144D01*
X164127600Y-53277144D01*
X164211501Y-53345999D01*
X164280356Y-53429900D01*
X164331521Y-53525621D01*
X164363027Y-53629485D01*
X164371000Y-53710433D01*
X164371000Y-54764567D01*
X164363027Y-54845515D01*
X164331521Y-54949379D01*
X164331519Y-54949382D01*
X164280357Y-55045100D01*
X164211501Y-55129001D01*
X164127600Y-55197857D01*
X164059055Y-55234495D01*
X164031879Y-55249021D01*
X163928015Y-55280527D01*
X163820000Y-55291166D01*
X163711986Y-55280527D01*
X163608122Y-55249021D01*
X163580946Y-55234495D01*
X163512401Y-55197857D01*
X163428500Y-55129001D01*
X163359644Y-55045100D01*
X163308482Y-54949382D01*
X163308480Y-54949379D01*
X163276974Y-54845515D01*
X163269001Y-54764567D01*
X163269000Y-53710434D01*
X163276973Y-53629486D01*
X163308479Y-53525622D01*
X163339923Y-53466795D01*
X163359643Y-53429901D01*
X163402622Y-53377531D01*
X163428499Y-53345999D01*
X163512400Y-53277144D01*
X163512399Y-53277144D01*
X163512401Y-53277143D01*
X163582152Y-53239860D01*
X163608121Y-53225979D01*
X163711985Y-53194473D01*
X163820000Y-53183834D01*
X163928014Y-53194473D01*
G37*
G36*
X155288014Y-53194473D02*
G01*
X155391878Y-53225979D01*
X155417847Y-53239860D01*
X155487599Y-53277143D01*
X155487601Y-53277144D01*
X155487600Y-53277144D01*
X155571501Y-53345999D01*
X155640356Y-53429900D01*
X155691521Y-53525621D01*
X155723027Y-53629485D01*
X155731000Y-53710433D01*
X155731000Y-54764567D01*
X155723027Y-54845515D01*
X155691521Y-54949379D01*
X155691519Y-54949382D01*
X155640357Y-55045100D01*
X155571501Y-55129001D01*
X155487600Y-55197857D01*
X155419055Y-55234495D01*
X155391879Y-55249021D01*
X155288015Y-55280527D01*
X155180000Y-55291166D01*
X155071986Y-55280527D01*
X154968122Y-55249021D01*
X154940946Y-55234495D01*
X154872401Y-55197857D01*
X154788500Y-55129001D01*
X154719644Y-55045100D01*
X154668482Y-54949382D01*
X154668480Y-54949379D01*
X154636974Y-54845515D01*
X154629001Y-54764567D01*
X154629000Y-53710434D01*
X154636973Y-53629486D01*
X154668479Y-53525622D01*
X154699923Y-53466795D01*
X154719643Y-53429901D01*
X154762622Y-53377531D01*
X154788499Y-53345999D01*
X154872400Y-53277144D01*
X154872399Y-53277144D01*
X154872401Y-53277143D01*
X154942152Y-53239860D01*
X154968121Y-53225979D01*
X155071985Y-53194473D01*
X155180000Y-53183834D01*
X155288014Y-53194473D01*
G37*
G36*
X156602383Y-53174989D02*
G01*
X156602386Y-53174990D01*
X156602385Y-53174990D01*
X156666258Y-53201446D01*
X156723748Y-53239860D01*
X156772640Y-53288752D01*
X156811054Y-53346242D01*
X156824014Y-53377531D01*
X156837511Y-53410117D01*
X156851000Y-53477930D01*
X156851000Y-53547070D01*
X156837511Y-53614883D01*
X156837510Y-53614885D01*
X156811054Y-53678758D01*
X156772640Y-53736248D01*
X156723748Y-53785140D01*
X156660748Y-53827236D01*
X156650769Y-53832570D01*
X156631827Y-53848115D01*
X156616283Y-53867058D01*
X156604732Y-53888669D01*
X156597619Y-53912118D01*
X156595218Y-53936504D01*
X156597620Y-53960890D01*
X156604734Y-53984339D01*
X156616286Y-54005949D01*
X156631831Y-54024891D01*
X156650774Y-54040435D01*
X156672385Y-54051986D01*
X156695834Y-54059099D01*
X156720217Y-54061500D01*
X162158488Y-54061500D01*
X162182874Y-54059098D01*
X162206323Y-54051985D01*
X162227934Y-54040434D01*
X162246876Y-54024889D01*
X162262421Y-54005947D01*
X162273972Y-53984336D01*
X162281085Y-53960887D01*
X162283487Y-53936501D01*
X162281085Y-53912115D01*
X162273972Y-53888666D01*
X162262421Y-53867055D01*
X162246876Y-53848113D01*
X162227934Y-53832568D01*
X162217415Y-53826264D01*
X162179051Y-53805758D01*
X162160103Y-53790207D01*
X162125604Y-53761896D01*
X162097293Y-53727397D01*
X162081742Y-53708449D01*
X162049150Y-53647472D01*
X162049149Y-53647469D01*
X162029078Y-53581308D01*
X162022302Y-53512500D01*
X162029078Y-53443692D01*
X162049149Y-53377531D01*
X162049150Y-53377528D01*
X162081742Y-53316551D01*
X162097293Y-53297603D01*
X162125604Y-53263104D01*
X162170840Y-53225981D01*
X162179051Y-53219242D01*
X162240028Y-53186650D01*
X162240031Y-53186649D01*
X162306191Y-53166578D01*
X162357756Y-53161500D01*
X162642244Y-53161500D01*
X162693809Y-53166578D01*
X162759969Y-53186649D01*
X162759972Y-53186650D01*
X162820949Y-53219242D01*
X162829160Y-53225981D01*
X162874396Y-53263104D01*
X162902707Y-53297603D01*
X162918258Y-53316551D01*
X162950850Y-53377528D01*
X162950851Y-53377531D01*
X162970922Y-53443692D01*
X162977698Y-53512500D01*
X162970922Y-53581308D01*
X162950851Y-53647469D01*
X162950850Y-53647472D01*
X162918258Y-53708449D01*
X162902707Y-53727397D01*
X162874396Y-53761896D01*
X162839897Y-53790207D01*
X162820949Y-53805758D01*
X162782587Y-53826262D01*
X162762214Y-53839875D01*
X162744887Y-53857202D01*
X162731273Y-53877576D01*
X162721896Y-53900215D01*
X162717115Y-53924248D01*
X162717115Y-53948752D01*
X162721895Y-53972785D01*
X162731272Y-53995424D01*
X162744886Y-54015799D01*
X162762213Y-54033126D01*
X162782587Y-54046740D01*
X162805226Y-54056117D01*
X162829259Y-54060898D01*
X162841512Y-54061500D01*
X162911000Y-54061500D01*
X162911000Y-55163500D01*
X156089000Y-55163500D01*
X156089000Y-54061500D01*
X156279783Y-54061500D01*
X156304169Y-54059098D01*
X156327618Y-54051985D01*
X156349229Y-54040434D01*
X156368171Y-54024889D01*
X156383716Y-54005947D01*
X156395267Y-53984336D01*
X156402380Y-53960887D01*
X156404782Y-53936501D01*
X156402380Y-53912115D01*
X156395267Y-53888666D01*
X156383716Y-53867055D01*
X156368171Y-53848113D01*
X156349229Y-53832568D01*
X156339249Y-53827233D01*
X156333742Y-53823553D01*
X156333739Y-53823552D01*
X156277734Y-53786130D01*
X156276252Y-53785140D01*
X156227360Y-53736248D01*
X156188946Y-53678758D01*
X156162490Y-53614885D01*
X156162489Y-53614883D01*
X156149000Y-53547070D01*
X156149000Y-53477930D01*
X156162489Y-53410117D01*
X156175986Y-53377531D01*
X156188946Y-53346242D01*
X156227360Y-53288752D01*
X156276252Y-53239860D01*
X156333742Y-53201446D01*
X156397615Y-53174990D01*
X156397614Y-53174990D01*
X156397617Y-53174989D01*
X156465430Y-53161500D01*
X156534570Y-53161500D01*
X156602383Y-53174989D01*
G37*
G36*
X183948516Y-51258379D02*
G01*
X183986209Y-51269813D01*
X184020945Y-51288380D01*
X184051390Y-51313366D01*
X184076376Y-51343811D01*
X184094943Y-51378547D01*
X184106377Y-51416240D01*
X184110842Y-51461575D01*
X184110842Y-52548253D01*
X184106377Y-52593588D01*
X184094943Y-52631281D01*
X184076376Y-52666017D01*
X184051390Y-52696462D01*
X184020945Y-52721448D01*
X183986209Y-52740015D01*
X183948516Y-52751449D01*
X183903181Y-52755914D01*
X183066503Y-52755914D01*
X183021168Y-52751449D01*
X182983475Y-52740015D01*
X182948739Y-52721448D01*
X182918294Y-52696462D01*
X182893308Y-52666017D01*
X182874741Y-52631281D01*
X182863307Y-52593588D01*
X182858842Y-52548253D01*
X182858842Y-51461575D01*
X182863307Y-51416240D01*
X182874741Y-51378547D01*
X182893308Y-51343811D01*
X182918294Y-51313366D01*
X182948739Y-51288380D01*
X182983475Y-51269813D01*
X183021168Y-51258379D01*
X183066503Y-51253914D01*
X183903181Y-51253914D01*
X183948516Y-51258379D01*
G37*
G36*
X181898516Y-51258379D02*
G01*
X181936209Y-51269813D01*
X181970945Y-51288380D01*
X182001390Y-51313366D01*
X182026376Y-51343811D01*
X182044943Y-51378547D01*
X182056377Y-51416240D01*
X182060842Y-51461575D01*
X182060842Y-52548253D01*
X182056377Y-52593588D01*
X182044943Y-52631281D01*
X182026376Y-52666017D01*
X182001390Y-52696462D01*
X181970945Y-52721448D01*
X181936209Y-52740015D01*
X181898516Y-52751449D01*
X181853181Y-52755914D01*
X181016503Y-52755914D01*
X180971168Y-52751449D01*
X180933475Y-52740015D01*
X180898739Y-52721448D01*
X180868294Y-52696462D01*
X180843308Y-52666017D01*
X180824741Y-52631281D01*
X180813307Y-52593588D01*
X180808842Y-52548253D01*
X180808842Y-51461575D01*
X180813307Y-51416240D01*
X180824741Y-51378547D01*
X180843308Y-51343811D01*
X180868294Y-51313366D01*
X180898739Y-51288380D01*
X180933475Y-51269813D01*
X180971168Y-51258379D01*
X181016503Y-51253914D01*
X181853181Y-51253914D01*
X181898516Y-51258379D01*
G37*
G36*
X186938674Y-51253465D02*
G01*
X186976367Y-51264899D01*
X187011103Y-51283466D01*
X187041548Y-51308452D01*
X187066534Y-51338897D01*
X187085101Y-51373633D01*
X187096535Y-51411326D01*
X187101000Y-51456661D01*
X187101000Y-52543339D01*
X187096535Y-52588674D01*
X187085101Y-52626367D01*
X187066534Y-52661103D01*
X187041548Y-52691548D01*
X187011103Y-52716534D01*
X186976367Y-52735101D01*
X186938674Y-52746535D01*
X186893339Y-52751000D01*
X186056661Y-52751000D01*
X186011326Y-52746535D01*
X185973633Y-52735101D01*
X185938897Y-52716534D01*
X185908452Y-52691548D01*
X185883466Y-52661103D01*
X185864899Y-52626367D01*
X185853465Y-52588674D01*
X185849000Y-52543339D01*
X185849000Y-51456661D01*
X185853465Y-51411326D01*
X185864899Y-51373633D01*
X185883466Y-51338897D01*
X185908452Y-51308452D01*
X185938897Y-51283466D01*
X185973633Y-51264899D01*
X186011326Y-51253465D01*
X186056661Y-51249000D01*
X186893339Y-51249000D01*
X186938674Y-51253465D01*
G37*
G36*
X188988674Y-51253465D02*
G01*
X189026367Y-51264899D01*
X189061103Y-51283466D01*
X189091548Y-51308452D01*
X189116534Y-51338897D01*
X189135101Y-51373633D01*
X189146535Y-51411326D01*
X189151000Y-51456661D01*
X189151000Y-52543339D01*
X189146535Y-52588674D01*
X189135101Y-52626367D01*
X189116534Y-52661103D01*
X189091548Y-52691548D01*
X189061103Y-52716534D01*
X189026367Y-52735101D01*
X188988674Y-52746535D01*
X188943339Y-52751000D01*
X188106661Y-52751000D01*
X188061326Y-52746535D01*
X188023633Y-52735101D01*
X187988897Y-52716534D01*
X187958452Y-52691548D01*
X187933466Y-52661103D01*
X187914899Y-52626367D01*
X187903465Y-52588674D01*
X187899000Y-52543339D01*
X187899000Y-51456661D01*
X187903465Y-51411326D01*
X187914899Y-51373633D01*
X187933466Y-51338897D01*
X187958452Y-51308452D01*
X187988897Y-51283466D01*
X188023633Y-51264899D01*
X188061326Y-51253465D01*
X188106661Y-51249000D01*
X188943339Y-51249000D01*
X188988674Y-51253465D01*
G37*
G36*
X143379487Y-49748996D02*
G01*
X143616253Y-49847068D01*
X143616255Y-49847069D01*
X143829339Y-49989447D01*
X144010553Y-50170661D01*
X144152932Y-50383747D01*
X144251004Y-50620513D01*
X144301000Y-50871861D01*
X144301000Y-51128139D01*
X144251004Y-51379487D01*
X144191618Y-51522856D01*
X144152931Y-51616255D01*
X144010553Y-51829339D01*
X143829339Y-52010553D01*
X143616255Y-52152931D01*
X143616254Y-52152932D01*
X143616253Y-52152932D01*
X143379487Y-52251004D01*
X143128139Y-52301000D01*
X142871861Y-52301000D01*
X142620513Y-52251004D01*
X142383747Y-52152932D01*
X142383746Y-52152932D01*
X142383745Y-52152931D01*
X142170661Y-52010553D01*
X141989447Y-51829339D01*
X141847069Y-51616255D01*
X141808382Y-51522856D01*
X141748996Y-51379487D01*
X141699000Y-51128139D01*
X141699000Y-50871861D01*
X141748996Y-50620513D01*
X141847068Y-50383747D01*
X141989447Y-50170661D01*
X142170661Y-49989447D01*
X142383745Y-49847069D01*
X142383747Y-49847068D01*
X142620513Y-49748996D01*
X142871861Y-49699000D01*
X143128139Y-49699000D01*
X143379487Y-49748996D01*
G37*
G36*
X200379487Y-49748996D02*
G01*
X200616253Y-49847068D01*
X200616255Y-49847069D01*
X200829339Y-49989447D01*
X201010553Y-50170661D01*
X201152932Y-50383747D01*
X201251004Y-50620513D01*
X201301000Y-50871861D01*
X201301000Y-51128139D01*
X201251004Y-51379487D01*
X201191618Y-51522856D01*
X201152931Y-51616255D01*
X201010553Y-51829339D01*
X200829339Y-52010553D01*
X200616255Y-52152931D01*
X200616254Y-52152932D01*
X200616253Y-52152932D01*
X200379487Y-52251004D01*
X200128139Y-52301000D01*
X199871861Y-52301000D01*
X199620513Y-52251004D01*
X199383747Y-52152932D01*
X199383746Y-52152932D01*
X199383745Y-52152931D01*
X199170661Y-52010553D01*
X198989447Y-51829339D01*
X198847069Y-51616255D01*
X198808382Y-51522856D01*
X198748996Y-51379487D01*
X198699000Y-51128139D01*
X198699000Y-50871861D01*
X198748996Y-50620513D01*
X198847068Y-50383747D01*
X198989447Y-50170661D01*
X199170661Y-49989447D01*
X199383745Y-49847069D01*
X199383747Y-49847068D01*
X199620513Y-49748996D01*
X199871861Y-49699000D01*
X200128139Y-49699000D01*
X200379487Y-49748996D01*
G37*
G36*
X155288014Y-49219473D02*
G01*
X155391878Y-49250979D01*
X155417920Y-49264899D01*
X155487599Y-49302143D01*
X155502645Y-49314491D01*
X155571501Y-49370999D01*
X155629887Y-49442143D01*
X155640357Y-49454901D01*
X155667987Y-49506593D01*
X155691521Y-49550621D01*
X155723027Y-49654485D01*
X155731000Y-49735433D01*
X155731000Y-51089567D01*
X155723027Y-51170515D01*
X155691521Y-51274379D01*
X155686664Y-51283466D01*
X155640357Y-51370100D01*
X155571501Y-51454001D01*
X155487600Y-51522857D01*
X155419055Y-51559495D01*
X155391879Y-51574021D01*
X155288015Y-51605527D01*
X155180000Y-51616166D01*
X155071986Y-51605527D01*
X154968122Y-51574021D01*
X154940946Y-51559495D01*
X154872401Y-51522857D01*
X154788500Y-51454001D01*
X154719644Y-51370100D01*
X154673337Y-51283466D01*
X154668480Y-51274379D01*
X154636974Y-51170515D01*
X154629001Y-51089567D01*
X154629000Y-49735434D01*
X154636973Y-49654486D01*
X154668479Y-49550622D01*
X154692013Y-49506593D01*
X154719643Y-49454901D01*
X154731991Y-49439855D01*
X154788499Y-49370999D01*
X154872400Y-49302144D01*
X154872399Y-49302144D01*
X154872401Y-49302143D01*
X154942079Y-49264899D01*
X154968121Y-49250979D01*
X155071985Y-49219473D01*
X155180000Y-49208834D01*
X155288014Y-49219473D01*
G37*
G36*
X163928014Y-49219473D02*
G01*
X164031878Y-49250979D01*
X164057920Y-49264899D01*
X164127599Y-49302143D01*
X164142645Y-49314491D01*
X164211501Y-49370999D01*
X164269887Y-49442143D01*
X164280357Y-49454901D01*
X164307987Y-49506593D01*
X164331521Y-49550621D01*
X164363027Y-49654485D01*
X164371000Y-49735433D01*
X164371000Y-51089567D01*
X164363027Y-51170515D01*
X164331521Y-51274379D01*
X164326664Y-51283466D01*
X164280357Y-51370100D01*
X164211501Y-51454001D01*
X164127600Y-51522857D01*
X164059055Y-51559495D01*
X164031879Y-51574021D01*
X163928015Y-51605527D01*
X163820000Y-51616166D01*
X163711986Y-51605527D01*
X163608122Y-51574021D01*
X163580946Y-51559495D01*
X163512401Y-51522857D01*
X163428500Y-51454001D01*
X163359644Y-51370100D01*
X163313337Y-51283466D01*
X163308480Y-51274379D01*
X163276974Y-51170515D01*
X163269001Y-51089567D01*
X163269000Y-49735434D01*
X163276973Y-49654486D01*
X163308479Y-49550622D01*
X163332013Y-49506593D01*
X163359643Y-49454901D01*
X163371991Y-49439855D01*
X163428499Y-49370999D01*
X163512400Y-49302144D01*
X163512399Y-49302144D01*
X163512401Y-49302143D01*
X163582079Y-49264899D01*
X163608121Y-49250979D01*
X163711985Y-49219473D01*
X163820000Y-49208834D01*
X163928014Y-49219473D01*
G37*
G36*
X158651000Y-51463500D02*
G01*
X157549000Y-51463500D01*
X157549000Y-49361500D01*
X158651000Y-49361500D01*
X158651000Y-51463500D01*
G37*
G36*
X161451000Y-51463500D02*
G01*
X160349000Y-51463500D01*
X160349000Y-49361500D01*
X161451000Y-49361500D01*
X161451000Y-51463500D01*
G37*
G36*
X150438674Y-49253465D02*
G01*
X150476367Y-49264899D01*
X150511103Y-49283466D01*
X150541548Y-49308452D01*
X150566534Y-49338897D01*
X150585101Y-49373633D01*
X150596535Y-49411326D01*
X150601000Y-49456661D01*
X150601000Y-50543339D01*
X150596535Y-50588674D01*
X150585101Y-50626367D01*
X150566534Y-50661103D01*
X150541548Y-50691548D01*
X150511103Y-50716534D01*
X150476367Y-50735101D01*
X150438674Y-50746535D01*
X150393339Y-50751000D01*
X149556661Y-50751000D01*
X149511326Y-50746535D01*
X149473633Y-50735101D01*
X149438897Y-50716534D01*
X149408452Y-50691548D01*
X149383466Y-50661103D01*
X149364899Y-50626367D01*
X149353465Y-50588674D01*
X149349000Y-50543339D01*
X149349000Y-49456661D01*
X149353465Y-49411326D01*
X149364899Y-49373633D01*
X149383466Y-49338897D01*
X149408452Y-49308452D01*
X149438897Y-49283466D01*
X149473633Y-49264899D01*
X149511326Y-49253465D01*
X149556661Y-49249000D01*
X150393339Y-49249000D01*
X150438674Y-49253465D01*
G37*
G36*
X169488674Y-49253465D02*
G01*
X169526367Y-49264899D01*
X169561103Y-49283466D01*
X169591548Y-49308452D01*
X169616534Y-49338897D01*
X169635101Y-49373633D01*
X169646535Y-49411326D01*
X169651000Y-49456661D01*
X169651000Y-50543339D01*
X169646535Y-50588674D01*
X169635101Y-50626367D01*
X169616534Y-50661103D01*
X169591548Y-50691548D01*
X169561103Y-50716534D01*
X169526367Y-50735101D01*
X169488674Y-50746535D01*
X169443339Y-50751000D01*
X168606661Y-50751000D01*
X168561326Y-50746535D01*
X168523633Y-50735101D01*
X168488897Y-50716534D01*
X168458452Y-50691548D01*
X168433466Y-50661103D01*
X168414899Y-50626367D01*
X168403465Y-50588674D01*
X168399000Y-50543339D01*
X168399000Y-49456661D01*
X168403465Y-49411326D01*
X168414899Y-49373633D01*
X168433466Y-49338897D01*
X168458452Y-49308452D01*
X168488897Y-49283466D01*
X168523633Y-49264899D01*
X168561326Y-49253465D01*
X168606661Y-49249000D01*
X169443339Y-49249000D01*
X169488674Y-49253465D01*
G37*
G36*
X167438674Y-49253465D02*
G01*
X167476367Y-49264899D01*
X167511103Y-49283466D01*
X167541548Y-49308452D01*
X167566534Y-49338897D01*
X167585101Y-49373633D01*
X167596535Y-49411326D01*
X167601000Y-49456661D01*
X167601000Y-50543339D01*
X167596535Y-50588674D01*
X167585101Y-50626367D01*
X167566534Y-50661103D01*
X167541548Y-50691548D01*
X167511103Y-50716534D01*
X167476367Y-50735101D01*
X167438674Y-50746535D01*
X167393339Y-50751000D01*
X166556661Y-50751000D01*
X166511326Y-50746535D01*
X166473633Y-50735101D01*
X166438897Y-50716534D01*
X166408452Y-50691548D01*
X166383466Y-50661103D01*
X166364899Y-50626367D01*
X166353465Y-50588674D01*
X166349000Y-50543339D01*
X166349000Y-49456661D01*
X166353465Y-49411326D01*
X166364899Y-49373633D01*
X166383466Y-49338897D01*
X166408452Y-49308452D01*
X166438897Y-49283466D01*
X166473633Y-49264899D01*
X166511326Y-49253465D01*
X166556661Y-49249000D01*
X167393339Y-49249000D01*
X167438674Y-49253465D01*
G37*
G36*
X152488674Y-49253465D02*
G01*
X152526367Y-49264899D01*
X152561103Y-49283466D01*
X152591548Y-49308452D01*
X152616534Y-49338897D01*
X152635101Y-49373633D01*
X152646535Y-49411326D01*
X152651000Y-49456661D01*
X152651000Y-50543339D01*
X152646535Y-50588674D01*
X152635101Y-50626367D01*
X152616534Y-50661103D01*
X152591548Y-50691548D01*
X152561103Y-50716534D01*
X152526367Y-50735101D01*
X152488674Y-50746535D01*
X152443339Y-50751000D01*
X151606661Y-50751000D01*
X151561326Y-50746535D01*
X151523633Y-50735101D01*
X151488897Y-50716534D01*
X151458452Y-50691548D01*
X151433466Y-50661103D01*
X151414899Y-50626367D01*
X151403465Y-50588674D01*
X151399000Y-50543339D01*
X151399000Y-49456661D01*
X151403465Y-49411326D01*
X151414899Y-49373633D01*
X151433466Y-49338897D01*
X151458452Y-49308452D01*
X151488897Y-49283466D01*
X151523633Y-49264899D01*
X151561326Y-49253465D01*
X151606661Y-49249000D01*
X152443339Y-49249000D01*
X152488674Y-49253465D01*
G37*
M02*
